<svg width="641" height="507" viewBox="0 0 641 507" fill="none" xmlns="http://www.w3.org/2000/svg">
<path fill-rule="evenodd" clip-rule="evenodd" d="M135.778 93.2954C143.045 95.3957 149.68 95.5726 152.366 94.0535C159.101 90.2442 152.667 63.5444 144.27 54.5904C135.873 45.6364 105.873 48.7982 109.968 69.9031C111.389 77.2279 116.12 82.8362 121.973 86.8779L123.97 126.297L147.156 120.078L135.778 93.2954Z" fill="#F2994A"/>
<path fill-rule="evenodd" clip-rule="evenodd" d="M147.716 58.6979C147.123 57.4042 146.159 56.0498 145.363 54.8891C144.337 53.3927 143.054 52.1394 141.706 50.9957C139.167 48.8423 136.331 47.0434 133.376 45.7119C127.978 43.2797 121.78 42.7038 116.417 44.869C113.71 45.9622 111.279 47.7611 109.442 50.1623C107.783 52.3319 106.407 55.2397 103.747 56.1356C100.852 57.1104 97.4558 55.2303 94.6639 54.2554C91.5162 53.1565 88.3301 52.595 85.0809 52.9161C79.6378 53.4542 75.213 56.5324 72.7675 61.7814C70.1652 67.3671 69.1763 74.8002 73.3045 80.1693C74.0718 81.1673 74.9257 81.9532 75.9974 82.507C76.9803 83.0147 78.3921 83.4567 79.0203 84.5207C79.6878 85.6517 79.0934 87.5013 78.9944 88.71C78.8527 90.4416 78.833 92.2247 79.4576 93.8981C80.4835 96.6461 82.9734 98.8643 85.3377 100.217C87.7437 101.594 90.373 102.048 93.0054 101.877C94.7632 101.762 96.5176 101.488 98.18 100.909C99.0053 100.621 99.6855 100.187 100.451 99.7821C101.196 99.3881 101.696 99.4803 102.485 99.7357C106.154 100.922 109.725 100.804 113.254 99.5349C116.233 98.4634 119.546 96.7818 121.472 94.0236C123.61 90.9604 122.698 87.7719 121.132 84.5236C121.912 84.6808 123.872 84.3818 122.37 83.3249C121.775 82.9063 120.864 82.9152 120.201 82.753C119.429 82.5641 118.618 82.2701 117.934 81.8077C115.171 79.9408 115.978 74.4172 118.413 72.8896C122.03 70.62 124.408 75.9694 127.609 76.6596C129.45 77.0564 130.838 75.4669 131.74 73.9822C132.948 71.9934 133.504 69.6388 133.899 67.2884C134.224 65.3528 134.489 63.4077 134.832 61.4766C134.992 60.5748 135.682 57.9617 134.788 57.2304C137.461 55.9089 140.92 56.2411 143.765 57.1306C144.941 57.4985 145.895 57.9956 146.732 58.977C146.912 59.1873 147.353 59.837 147.675 59.7821C148.274 59.6801 147.864 59.023 147.716 58.6979" fill="#595959"/>
<path fill-rule="evenodd" clip-rule="evenodd" d="M98.4239 304.92C98.4239 304.92 134.414 315.006 160.526 315.006C186.638 315.006 209.034 299.473 209.034 299.473C209.034 299.473 173.815 289.121 151.025 289.121C128.235 289.121 98.4239 304.92 98.4239 304.92Z" fill="#1F28CF"/>
<path fill-rule="evenodd" clip-rule="evenodd" d="M181.296 324.699C181.065 324.35 180.87 323.971 180.715 323.56C177.508 315.062 126.137 223.382 121.02 206.621H178.855C182.746 219.365 200.26 299.34 202.724 315.296C210.501 340.465 226.512 421.979 228.556 427.626C230.706 433.566 218.608 439.755 215.384 432.451C210.254 420.831 198.031 388.677 192.589 369.044C187.486 350.638 183.332 334.079 181.296 324.699Z" fill="#F2994A"/>
<path fill-rule="evenodd" clip-rule="evenodd" d="M133.979 335.892C110.493 341.84 24.588 352.592 18.6928 354.278C12.6285 356.013 7.31125 343.489 14.8071 340.775C26.7342 336.458 59.5989 326.484 79.5248 322.414C95.552 319.14 110.177 316.468 119.996 314.904C119.164 287.267 115.362 220.945 117.854 206.621H169.028C166.638 220.357 146.434 320.583 142.679 330.616C141.487 334.197 137.931 335.78 133.979 335.892V335.892Z" fill="#F2994A"/>
<path fill-rule="evenodd" clip-rule="evenodd" d="M16.9353 339.974C17.2131 338.838 16.5232 337.668 15.3713 337.466C13.2671 337.096 10.1295 336.655 8.45692 336.951C5.79265 337.422 0.83778 339.214 0.83778 339.214C1.38276 342.311 10.6335 394.879 10.6335 394.879C10.6335 394.879 18.1743 395.783 17.9224 391.008C17.6706 386.232 17.5865 383.059 17.5865 383.059L24.5454 355.15C24.6816 354.603 24.3405 354.053 23.791 353.931L19.4703 352.979C19.4703 352.979 16.6936 349.008 16.2174 346.302C15.9272 344.653 16.4684 341.885 16.9353 339.974Z" fill="#E4E4E4"/>
<path fill-rule="evenodd" clip-rule="evenodd" d="M214.487 430.386C213.414 429.913 212.139 430.391 211.74 431.493C211.012 433.506 210.034 436.523 210.034 438.224C210.034 440.934 210.936 446.135 210.936 446.135C214.074 446.135 267.347 446.135 267.347 446.135C267.347 446.135 269.546 438.851 264.808 438.27C260.071 437.69 256.937 437.222 256.937 437.222L230.719 425.51C230.204 425.28 229.6 425.521 229.386 426.043L227.7 430.139C227.7 430.139 223.315 432.19 220.573 432.19C218.904 432.19 216.283 431.178 214.487 430.386Z" fill="#E4E4E4"/>
<path fill-rule="evenodd" clip-rule="evenodd" d="M118.019 206.621C118.019 206.621 151.845 196.924 182.03 206.621C189.031 238.627 206.043 251.33 209.034 300.401C175.029 317.331 133.022 288.327 98.016 304.837C88.0143 281.743 102.017 226.127 118.019 206.621Z" fill="#2B44FF"/>
<path fill-rule="evenodd" clip-rule="evenodd" d="M202.254 115.84L171.37 140.637L186.387 151.986L207.214 124.811C219.664 118.887 225.183 115.187 223.771 113.711C222.581 112.466 221.07 112.783 219.678 113.076C218.594 113.303 217.583 113.516 216.851 112.963C215.18 111.7 216.93 105.944 218.823 100.554C220.717 95.163 217.844 96.1104 216.282 97.1133C211.423 101.83 206.747 108.072 202.254 115.84ZM241.265 136.099L227.704 147.016L231.219 161.965C231.219 161.965 239.706 153.215 247.662 149.4C257.806 144.536 261.722 141.498 265.763 133.921C267.925 129.868 269.032 122.29 265.966 120.427C264.79 119.713 261.367 122.495 257.875 125.335C255.213 127.499 252.511 129.696 250.732 130.402C248.338 131.353 248.06 128.075 247.838 125.455C247.679 123.575 247.549 122.035 246.685 122.639C242.303 123.491 241.265 136.099 241.265 136.099Z" fill="#F2994A"/>
<path fill-rule="evenodd" clip-rule="evenodd" d="M153.984 139.396C165.937 137.155 181.459 131.803 196.589 117.959L205.914 131.729C196.22 145.491 181.386 158.01 166.865 160.153C155.421 161.843 147.17 149.069 153.984 139.396Z" fill="#FF9800"/>
<path fill-rule="evenodd" clip-rule="evenodd" d="M139.732 247.532C128.086 248.054 117.385 248.534 111.401 250.851C100.459 229.445 103.724 214.176 106.738 200.08C108.555 191.584 110.281 183.515 108.75 174.785C104.291 149.364 117.768 106.645 120.765 106.116L148.095 101.292C152.087 116.806 160.302 132.915 168.57 149.129C170.5 152.915 172.434 156.707 174.318 160.498C194.975 161.51 236.308 138.001 236.308 138.001C236.308 138.001 251.508 159.115 252.399 169.092C229.095 187.059 208.148 196.933 190.091 200.527C192.566 211.203 193.063 221.688 190.316 231.835C186.635 245.43 161.529 246.555 139.732 247.532Z" fill="#F3C140"/>
<path fill-rule="evenodd" clip-rule="evenodd" d="M355.736 64.9286C350.732 68.4456 345.706 70.3273 343.253 69.8741C337.103 68.7378 335 46.6535 339.065 37.605C343.13 28.5564 366.896 23.0745 369.316 40.2702C370.155 46.2382 368.014 51.7665 364.602 56.3939L373.441 87.0235L354.081 88.3773L355.736 64.9286Z" fill="#915B3C"/>
<path fill-rule="evenodd" clip-rule="evenodd" d="M377.354 33.9277C377.936 33.2636 378.215 32.3544 378.452 31.4931C378.697 30.5984 378.933 29.6953 379.073 28.772C379.352 26.9274 379.21 24.8385 377.817 23.5187C376.7 22.4604 375.107 22.0621 373.662 22.0524C372.699 22.0459 371.724 22.2489 370.827 22.6152C369.937 22.9786 369.194 23.6308 368.337 24.0633C368.166 22.1085 367.688 20.084 366.579 18.4822C365.512 16.941 363.927 16.1451 362.177 16.0276C360.381 15.907 358.654 16.4465 357.121 17.4199C356.738 17.6637 356.359 17.9175 355.999 18.1999C355.697 18.4364 355.386 18.7176 355.021 18.8308C354.613 18.957 354.391 18.732 354.101 18.4485C353.761 18.116 353.384 17.8287 352.988 17.5782C351.239 16.4708 349.022 16.1202 347.146 16.9885C346.282 17.3885 345.459 18.0228 344.912 18.8558C344.424 19.5983 344.12 20.7434 343.413 21.2863C343.113 21.5168 342.872 21.2561 342.571 21.072C342.12 20.7953 341.686 20.4855 341.23 20.2175C340.589 19.841 339.905 19.5737 339.185 19.4591C338.13 19.2913 336.7 19.4479 336.499 20.8291C336.423 21.3479 336.546 21.8885 336.619 22.4008C336.717 23.1044 336.818 23.8075 336.929 24.5092C337.013 25.0419 337.108 25.5555 337.246 26.0748C337.319 26.3516 337.525 26.8629 337.424 27.1522C337.299 27.5139 336.591 27.3628 336.296 27.3957C335.713 27.4608 335.132 27.6045 334.609 27.8926C334.203 28.1158 333.782 28.4319 333.639 28.9252C333.551 29.2283 333.601 29.5298 333.674 29.8301C333.761 30.1906 333.704 30.389 333.683 30.7603C332.871 30.428 330.088 29.7579 329.844 31.1913C329.762 31.6686 330.059 32.1808 330.285 32.5627C330.681 33.2326 331.181 33.8352 331.689 34.4078C332.749 35.6022 333.986 36.6099 335.299 37.4537C333.882 38.2067 333.635 40.1529 334.981 41.2079C335.575 41.6737 336.334 41.7336 337.037 41.652C337.295 41.6221 337.66 41.4968 337.866 41.5276C337.977 41.5441 338.1 41.6287 338.253 41.6285C339.253 41.6271 340.359 41.3085 341.317 41.0195C343.022 40.5044 344.606 39.5676 345.859 38.2219C346.18 37.8767 346.451 37.6719 346.914 37.6443C347.32 37.6201 347.726 37.7035 348.131 37.6855C349.205 37.6379 350.135 37.0458 351.106 36.6271C351.261 37.9688 351.747 39.4243 352.382 40.5967C352.9 41.5528 353.846 41.6308 354.773 41.653C357.736 41.7244 360.668 41.2085 363.615 41.0066C360.807 41.8515 357.878 42.3236 355.104 43.2809C353.85 43.7135 354.886 44.5075 355.474 45.067C356.443 45.9883 357.197 47.1611 357.751 48.4134C359.019 46.495 361.402 45.1227 363.626 45.5293C366.084 45.9784 368.013 49.128 366.633 51.5857C365.832 53.0125 364.25 53.6523 362.944 54.3325C364.072 55.3526 364.439 56.9499 365.166 58.2661C365.525 58.9152 366.016 59.6432 366.73 59.8282C366.994 59.8967 367.297 59.8829 367.516 60.0793C367.786 60.3224 367.867 60.6097 368.204 60.8113C369.552 61.6158 371.555 61.4065 372.613 60.1596C373.569 59.032 373.184 57.3803 372.249 56.3702C373.579 55.703 376.022 54.7935 375.329 52.6958C378.283 52.291 385.152 46.9693 380.922 43.7273C383.022 42.3378 384.819 39.1751 383.228 36.6092C382.004 34.6334 379.425 33.8922 377.354 33.9277" fill="#191847"/>
<path fill-rule="evenodd" clip-rule="evenodd" d="M389.403 157.549L329.314 258.104L284.264 343.114H274.561L350.042 157.549L389.403 157.549Z" fill="#784931"/>
<path fill-rule="evenodd" clip-rule="evenodd" d="M287.572 338.451C288.65 337.992 289.925 338.467 290.315 339.572C290.882 341.177 291.554 343.349 291.554 344.616C291.554 346.806 290.825 351.006 290.825 351.006C288.288 351.006 245.215 351.006 245.215 351.006C245.215 351.006 243.437 345.123 247.268 344.654C251.098 344.185 253.632 343.807 253.632 343.807L274.651 334.427C275.165 334.198 275.768 334.439 275.983 334.96L277.27 338.086C277.27 338.086 280.816 339.742 283.033 339.742C284.268 339.742 286.149 339.058 287.572 338.451Z" fill="#E4E4E4"/>
<path fill-rule="evenodd" clip-rule="evenodd" d="M296.776 329.502L278.063 323.835C278.063 323.835 290.361 287.036 308.209 242.843C326.056 198.65 346.544 157.549 346.544 157.549H399.395C399.395 157.549 376.617 209.541 351.1 252.031C325.583 294.522 296.776 329.502 296.776 329.502Z" fill="#FDD8D8"/>
<path fill-rule="evenodd" clip-rule="evenodd" d="M393.352 157.549C399.024 192.884 409.962 238.03 410.994 239.423C411.683 240.352 436.458 248.662 485.32 264.353L483.224 272.917C424.956 264.502 394.254 257.973 391.117 253.331C386.412 246.367 362.921 191.354 353.822 157.549H393.352Z" fill="#915B3C"/>
<path fill-rule="evenodd" clip-rule="evenodd" d="M468.144 256.949L464.452 270.743C420.871 274.569 394.168 271.805 384.343 262.45C374.518 253.095 363.32 218.128 350.75 157.549H401.147C409.111 207.155 413.564 232.999 414.504 235.081C415.445 237.164 433.325 244.453 468.144 256.949Z" fill="#8991DC"/>
<path fill-rule="evenodd" clip-rule="evenodd" d="M481.744 263.24C481.479 262.099 482.168 260.927 483.322 260.735C485 260.455 487.254 260.169 488.501 260.389C490.656 260.769 494.662 262.217 494.662 262.217C494.221 264.718 486.742 307.178 486.742 307.178C486.742 307.178 480.645 307.909 480.848 304.051C481.052 300.194 481.12 297.631 481.12 297.631L475.541 275.281C475.405 274.734 475.746 274.183 476.296 274.062L479.597 273.335C479.597 273.335 481.842 270.127 482.227 267.942C482.441 266.723 482.093 264.749 481.744 263.24Z" fill="#E4E4E4"/>
<path fill-rule="evenodd" clip-rule="evenodd" d="M461.541 167.72C457.669 164.009 430.795 121.504 430.795 121.504L417.217 126.518C417.217 126.518 450.191 170.71 452.422 173.191C455.319 176.414 454.729 182.844 454.329 187.204C454.267 187.879 454.21 188.504 454.171 189.06C457.001 189.264 457.691 187.52 458.418 185.683C459.239 183.607 460.109 181.411 464.164 181.763C465.731 181.899 467.267 182.175 468.768 182.445C473.952 183.376 478.714 184.232 482.859 178.983C483.517 178.151 483.728 175.842 480.923 175.119C473.936 173.317 463.434 169.534 461.541 167.72ZM295.1 172.701L317.212 149.553L325.278 162.457L301.963 177.331C296.323 186.95 292.96 191.138 291.872 189.896C290.956 188.848 291.317 187.653 291.65 186.552C291.909 185.694 292.151 184.894 291.758 184.265C290.861 182.829 286.11 183.834 281.643 184.981C277.175 186.128 278.139 183.878 279.056 182.69C283.19 179.106 288.538 175.776 295.1 172.701Z" fill="#915B3C"/>
<path fill-rule="evenodd" clip-rule="evenodd" d="M351.424 75.2216L360.558 77.2161C360.861 79.4586 361.428 82.6247 362.078 86.252C364.118 97.6366 366.972 113.564 365.03 119.738C358.3 141.128 339.186 155.022 317.898 170.497C315.044 172.571 312.152 174.673 309.245 176.826L300.527 164.861C301.176 164.203 301.818 163.544 302.454 162.883C301.385 162.707 300.405 162.058 299.846 161.033C298.883 159.267 299.533 157.054 301.297 156.091C304.881 154.134 308.34 152.965 311.65 152.623C331.969 128.283 343.882 101.881 351.424 75.2216Z" fill="#FF8585"/>
<path fill-rule="evenodd" clip-rule="evenodd" d="M405.585 157.621C405.585 157.621 368.758 168.373 346.465 168.046C344.623 168.019 343.346 160.319 343.802 158.074C350.902 123.119 355.144 97.6983 351.141 74.9943C355.008 76.2212 363.631 73.3641 363.631 73.3641C383.615 93.9648 395.639 119.525 405.585 157.621Z" fill="#191847"/>
<path fill-rule="evenodd" clip-rule="evenodd" d="M453.285 149.618C419.99 90.206 369.684 70.3252 369.684 70.3252L365.382 71.0837L360.627 71.9222C364.048 85.3213 362.712 105.933 361.162 129.843C358.684 168.083 355.659 214.761 370.668 253.869C380.724 254.325 391.833 250.844 403.858 247.076C421.214 241.637 440.48 235.599 461.253 239.936C457.645 223.846 445.016 207.558 432.445 191.343C424.476 181.064 416.53 170.816 410.919 160.666C411.628 159.716 411.86 158.438 411.425 157.241L410.592 154.953C410.03 153.408 408.531 152.475 406.97 152.563C406.492 151.414 406.052 150.267 405.654 149.121C403.619 143.267 403.19 137.203 402.765 131.208C402.532 127.916 402.301 124.644 401.806 121.439C414.149 129.07 429.984 143.376 445.947 170.199L460.207 163.116C459.255 161.079 458.281 159.082 457.288 157.124C458.86 155.856 460.108 150.934 458.508 150.432C456.817 149.901 455.075 149.632 453.285 149.618Z" fill="#FFA2A2"/>
<path fill-rule="evenodd" clip-rule="evenodd" d="M366.535 71.7022L372.874 83.6249L366.272 94.5648L375.063 100.697L362.44 134.891L379.106 100.048L370.437 93.8303L376.304 84.1568L366.535 71.7022Z" fill="black" fill-opacity="0.1"/>
<path fill-rule="evenodd" clip-rule="evenodd" d="M369.854 145.913C368.095 146.223 366.417 145.047 366.106 143.286C365.796 141.525 366.97 139.846 368.73 139.536C370.489 139.226 372.167 140.402 372.477 142.163C372.788 143.924 371.613 145.603 369.854 145.913ZM369.105 164.95C367.346 165.26 365.668 164.084 365.357 162.323C365.047 160.562 366.221 158.883 367.98 158.572C369.74 158.262 371.418 159.438 371.728 161.199C372.039 162.96 370.864 164.639 369.105 164.95ZM367.794 180.798C368.104 182.559 369.782 183.735 371.541 183.424C373.301 183.114 374.475 181.435 374.165 179.674C373.854 177.913 372.176 176.737 370.417 177.047C368.658 177.357 367.483 179.037 367.794 180.798Z" fill="black" fill-opacity="0.4"/>
<path fill-rule="evenodd" clip-rule="evenodd" d="M498.584 187.907C492.694 191.457 486.906 193.171 484.189 192.471C477.376 190.716 476.749 165.803 482.021 155.981C487.292 146.159 514.392 141.879 515.758 161.338C516.232 168.092 513.395 174.12 509.203 179.038L516.719 214.055H494.887L498.584 187.907Z" fill="#B28B67"/>
<path fill-rule="evenodd" clip-rule="evenodd" d="M484.912 152.625C484.426 152.788 484.912 150.697 486.075 149.932C489.642 147.586 500.259 144.114 507.519 145.621C512.383 146.63 518.448 149.163 522.333 152.393C525.835 155.304 529.022 160.436 530.262 164.945C531.564 169.679 532.056 176.267 530.262 180.398C528.125 185.317 520.558 190.618 520.358 191.323C520.13 192.126 521.024 195.265 521.679 198.573C522.333 201.88 522.035 210.302 521.679 211.675C521.109 213.87 518.052 214.949 516.719 215.108C509.351 215.986 504.009 225.13 501.786 227.469C501.786 227.469 486.943 242.365 481.068 240.426C480.037 240.085 481.582 227.746 482.613 222.457C483.644 217.168 493.754 207.73 494.402 204.62C494.783 202.788 494.847 199.599 494.887 199.453C495.841 192.882 495.676 192.348 497.067 189.67C498.458 186.993 499.536 186.836 499.202 186.056C497.569 182.245 492.316 170.584 491.124 166.771C489.704 162.227 490.375 163.719 488.911 159.19C488.262 157.185 487.437 151.777 484.912 152.625Z" fill="#89C5CC"/>
<mask id="mask0" mask-type="alpha" maskUnits="userSpaceOnUse" x="480" y="145" width="52" height="96">
<path fill-rule="evenodd" clip-rule="evenodd" d="M484.912 152.625C484.426 152.788 484.912 150.697 486.075 149.932C489.642 147.586 500.259 144.114 507.519 145.621C512.383 146.63 518.448 149.163 522.333 152.393C525.835 155.304 529.022 160.436 530.262 164.945C531.564 169.679 532.056 176.267 530.262 180.398C528.125 185.317 520.558 190.618 520.358 191.323C520.13 192.126 521.024 195.265 521.679 198.573C522.333 201.88 522.035 210.302 521.679 211.675C521.109 213.87 518.052 214.949 516.719 215.108C509.351 215.986 504.009 225.13 501.786 227.469C501.786 227.469 486.943 242.365 481.068 240.426C480.037 240.085 481.582 227.746 482.613 222.457C483.644 217.168 493.754 207.73 494.402 204.62C494.783 202.788 494.847 199.599 494.887 199.453C495.841 192.882 495.676 192.348 497.067 189.67C498.458 186.993 499.536 186.836 499.202 186.056C497.569 182.245 492.316 170.584 491.124 166.771C489.704 162.227 490.375 163.719 488.911 159.19C488.262 157.185 487.437 151.777 484.912 152.625Z" fill="white"/>
</mask>
<g mask="url(#mask0)">
<path fill-rule="evenodd" clip-rule="evenodd" d="M505.292 167.81C505.635 160.894 505.292 158.193 503.696 153.131H504.68C506.236 155.14 507.537 161.284 506.075 167.81H505.292ZM524.576 167.484C524.747 167.064 524.923 166.634 525.105 166.193L525.73 166.494C523.757 173.71 521.356 179.28 513.112 183.95L512.471 183.502C520.268 178.022 521.939 173.932 524.576 167.484ZM512.648 160.683L512.648 160.684C511.463 169.826 510.711 175.623 504.105 186.137L504.854 186.366C512.095 176.615 513.243 168.657 513.585 158.909L512.886 158.853C512.804 159.479 512.725 160.088 512.648 160.683ZM520.018 188.486L520.659 189.264C517.451 189.935 515.269 192.294 512.769 194.998C510.123 197.858 507.12 201.106 502.164 203.15L501.245 202.593C506.653 199.782 509.169 196.988 511.366 194.549C513.64 192.023 515.573 189.878 520.018 188.486Z" fill="black" fill-opacity="0.2"/>
</g>
<path fill-rule="evenodd" clip-rule="evenodd" d="M534.327 289.529C532.687 311.906 427.018 377.79 426.402 379.638C425.991 380.871 459.292 457.55 459.292 457.55L450.055 461.138C450.055 461.138 398.976 379.929 401.6 371.276C405.356 358.887 483.587 289.767 483.587 289.767L534.327 289.529Z" fill="#B28B67"/>
<path fill-rule="evenodd" clip-rule="evenodd" d="M456.862 446.005L441.781 451.493C409.98 415.627 397.515 386.035 399.788 370.957C402.061 355.879 481.492 289.583 481.492 289.583L535.409 289.583C533.569 341.407 435.627 379.836 434.317 382.044C433.007 384.252 445.899 405.882 456.862 446.005Z" fill="#2F3676"/>
<path fill-rule="evenodd" clip-rule="evenodd" d="M459.831 455.83C460.681 455.025 462.041 455.036 462.79 455.936C464.027 457.424 465.701 459.592 466.211 460.994C467.053 463.305 467.897 468.019 467.897 468.019C465.215 468.995 419.683 485.561 419.683 485.561C419.683 485.561 415.542 480.034 419.411 478.065C423.28 476.097 425.813 474.724 425.813 474.724L444.519 456.649C444.924 456.258 445.573 456.278 445.953 456.694L448.602 459.594C448.602 459.594 452.987 459.978 455.331 459.126C456.706 458.625 458.546 457.048 459.831 455.83Z" fill="#E4E4E4"/>
<path fill-rule="evenodd" clip-rule="evenodd" d="M522.178 289.529L569.25 402.49L615.516 497.989H604.6L485.177 289.529H522.178Z" fill="#997659"/>
<path fill-rule="evenodd" clip-rule="evenodd" d="M613.467 492.643C614.541 492.177 615.815 492.652 616.21 493.754C616.864 495.575 617.695 498.184 617.695 499.676C617.695 502.136 616.875 506.855 616.875 506.855C614.021 506.855 565.567 506.855 565.567 506.855C565.567 506.855 563.567 500.246 567.876 499.719C572.185 499.192 575.035 498.767 575.035 498.767L598.798 488.178C599.313 487.948 599.915 488.189 600.13 488.71L601.627 492.341C601.627 492.341 605.616 494.201 608.11 494.201C609.573 494.201 611.842 493.348 613.467 492.643Z" fill="#E4E4E4"/>
<path fill-rule="evenodd" clip-rule="evenodd" d="M611.338 478.15L587.083 482.697C568.33 455.137 489.847 342.134 481.242 289.529H535.237C563.973 327.557 593.462 450.135 611.338 478.15Z" fill="#5C63AB"/>
<path fill-rule="evenodd" clip-rule="evenodd" d="M411.778 185.832L446.258 196.179L437.455 210.839L410.646 195.067C398.131 194.323 392.218 193.089 392.906 191.366C393.487 189.914 394.869 189.666 396.142 189.438C397.134 189.261 398.059 189.095 398.488 188.381C399.467 186.749 396.034 182.503 392.603 178.613C389.172 174.723 391.918 174.542 393.576 174.854C399.278 177.167 405.345 180.827 411.778 185.832ZM420.288 278.245L449.305 256.946L455.72 272.796L426.985 284.707C418.858 294.249 414.314 298.227 413.352 296.641C412.541 295.303 413.175 294.051 413.759 292.898C414.214 291.999 414.638 291.161 414.326 290.388C413.612 288.625 408.153 288.81 402.98 289.208C397.807 289.606 399.315 287.305 400.562 286.169C405.842 283.009 412.418 280.368 420.288 278.245Z" fill="#B28B67"/>
<path fill-rule="evenodd" clip-rule="evenodd" d="M494.377 199.585C478.575 229.037 455.725 251.615 422.598 275.085L435.141 289.222C472.128 275.482 491.649 267.192 501.236 239.366C503.642 232.382 505.323 210.119 506.766 198.405L494.377 199.585Z" fill="#2026A2"/>
<path fill-rule="evenodd" clip-rule="evenodd" d="M538.552 297.712H468.506C468.506 297.712 492.306 225.156 492.822 198.116C492.839 197.197 494.537 195.578 495.288 195.79C503.529 198.116 512.924 194.05 512.924 194.05C529.53 220.746 535.273 253.615 538.552 297.712Z" fill="#F2F2F2"/>
<path fill-rule="evenodd" clip-rule="evenodd" d="M495.354 234.779C484.414 281.688 484.918 320.087 509.071 320.087H546.42C552.351 280.239 536.762 224.989 522.309 197.121C521.757 196.057 520.582 194.05 517.814 194.05H506.961C506.957 194.065 506.952 194.079 506.947 194.094C503.681 194.12 500.085 194.24 496.19 194.369C476.14 195.034 448.182 195.962 416.724 185.867L413.015 204.392C441.409 222.647 470.161 236.787 495.354 234.779Z" fill="#1F28CF"/>
</svg>
