<svg id="Layer_1" data-name="Layer 1" xmlns="http://www.w3.org/2000/svg" viewBox="0 0 400 400"><defs><style>.cls-1{fill:#fff;}</style></defs><path class="cls-1" d="M171.35,199.72h-49.2l-3.54-22.38H86.53l-3.88,22.38H33.45L75.8,23.46H134ZM113,139.56,109.93,119a22,22,0,0,1-.45-3.08q-.24-2.52-2.4-19.87-.22-1.94-.57-5.31c-.23-2.24-.53-5.08-.91-8.5l-1.49-16.67q-.23,2.4-.63,5.37c-.26,2-.55,4.14-.85,6.5q-.81,7.08-1.14,9.82c-.23,1.83-.39,2.93-.46,3.31l-3.31,21.35-4.8,27.63Z"/><rect class="cls-1" x="177.49" y="81.63" width="45.89" height="118.09"/><path class="cls-1" d="M213.77,24a16.47,16.47,0,0,0-13.33,6.79,16.49,16.49,0,0,0-29.83,9.7c0,13.86,29.83,36.2,29.83,36.2s29.82-22.34,29.82-36.2A16.49,16.49,0,0,0,213.77,24Z"/><path class="cls-1" d="M298.15,199.72c.08-1.29.15-2.78.23-4.45s.19-3.62.34-5.82c.15-1.37.27-3.47.34-6.28q-6.62,10.72-12.9,15T271,202.23q-18.62,0-29.23-16.67t-10.5-46.35q0-31.16,10.28-48.29t29-17.23q10.28,0,16.56,4.56,6.62,4.57,12.78,15.87c-.23-4-.34-6.35-.34-7.19l-.46-12.44V24.17H345V199.72ZM278.63,137.5q0,25.35,11.3,25.35,10.62,0,10.62-26.15,0-25-10.28-25Q278.63,111.7,278.63,137.5Z"/><path class="cls-1" d="M87,231.38a21.14,21.14,0,0,1-6.51,15.47A21.82,21.82,0,0,1,65,253.26a21.35,21.35,0,0,1-15.66-6.51,21.89,21.89,0,0,1-6.41-15.66,21.17,21.17,0,0,1,6.41-15.56,21.79,21.79,0,0,1,15.56-6.42A22.06,22.06,0,0,1,87,231.38Z"/><rect class="cls-1" x="44.09" y="259.51" width="41.54" height="109.3"/><path class="cls-1" d="M144.28,368.81H102.74V292.89H91V259.51h11.78v-28h41.54v28H158v33.38H144.28Z"/><path class="cls-1" d="M252.13,368.81H210.59V292.89H198.81V259.51h11.78v-28h41.54v28h13.75v33.38H252.13Z"/><path class="cls-1" d="M369.23,314.67q0,25.83-14.26,41.12t-38.24,15.3q-23.55,0-37.51-15.61t-13.84-42.16q0-26.44,14.15-42.47t37.31-16.12q24.48,0,38.44,16T369.23,314.67ZM329,313.32a69.35,69.35,0,0,0-.83-11.21,36.74,36.74,0,0,0-2.37-8.58,16.07,16.07,0,0,0-3.72-5.52,7.08,7.08,0,0,0-4.86-2q-5.26,0-8.47,7.44Q305.57,300,305.57,313q0,12.83,3.21,19.53Q312,340,317.35,340q5.07,0,8.37-7.33A51.24,51.24,0,0,0,329,313.32Z"/></svg>