<svg id="Layer_1" data-name="Layer 1" xmlns="http://www.w3.org/2000/svg" xmlns:xlink="http://www.w3.org/1999/xlink" viewBox="0 0 245 327"><defs><style>.cls-1,.cls-4{fill:none;}.cls-2{fill:#fff;}.cls-3{fill:#1d1d1b;}.cls-4{stroke:#1d1d1b;stroke-width:0.23px;}.cls-5{clip-path:url(#clip-path);}</style><clipPath id="clip-path"><rect class="cls-1" x="0.42" y="0.09" width="244.17" height="326.78"/></clipPath></defs><path class="cls-2" d="M244.59,276V71.87h0a2.15,2.15,0,0,0-3.34-1.76h0l-65.72,49.38V276h0a2.15,2.15,0,0,0,2.14,2.16h64.75a2.16,2.16,0,0,0,2.14-2.16h0"/><path class="cls-2" d="M69.49,119.44,3.77,70.06A2.14,2.14,0,0,0,.42,71.87h0V276a2.16,2.16,0,0,0,2.15,2.16H67.35A2.16,2.16,0,0,0,69.48,276h0V119.44"/><path class="cls-3" d="M97.42,256.63l-44.57-58,67.11-52,44.57,58c3.62,4.88,11.83,19.8.06,34.8-12.59,15.94-11.17,20.44-11.17,20.44h0s-3-2.8-22.32,5.61c-18.44,8-29.89-4.09-33.68-8.84"/><path class="cls-2" d="M98.13,254.92l-43-56,64.76-50.23,43,56c3.5,4.72,12,20.13.15,34.5C150.57,254.32,152.17,258,152.17,258s-2.53-2.8-20.92,5.78c-17.73,8.27-29.46-4.31-33.11-8.9"/><path class="cls-3" d="M138.34,144.77a5.18,5.18,0,0,0-3.71-4.39A30.69,30.69,0,0,1,132.51,130a73.41,73.41,0,0,1,.37-15.61c.73-5.12-3.16-13.55-9.34-17.19-7-4.15-20.7-4-31.07,8-1.57,1.83-9,11-14.92,18.78s-4.85,13.17-2.06,14.39c0,0,2.58.66,12.31,1.64,4.55.46,7.19.28,11,1.56,2.74.92,4.94,4.84,3.48,7.77-5.73,3.75-7.4,9.87-3,11.61,6.89,2.74,16.56-8.78,21.75-11.61l1.43,1.58c9.7,1.95,16.25-.36,15.89-6.21"/><path class="cls-4" d="M76,137.45s5.24,1.11,13.34-.73c7.52-1.71,9.46-13.9,9.46-13.9,7.29-2,21.6-1.22,21.6-1.22a24,24,0,0,1,7.53,1"/><path class="cls-2" d="M103.73,150.5c2.08-3.72-.11-9.93-4.91-10.79a62.07,62.07,0,0,0-9-1.16c-3.37-.19-5.92-.58-5.92-.58a61.93,61.93,0,0,0,10-1.83c6-1.55,16.82-6.24,24.12-7.68,11.1-2.19,13.46-.18,13.46-.18a63.45,63.45,0,0,0,2,12s.85-.19-3.4.37-11,4.39-17,8.29c-4.25,2.79-9.83,7.17-10.74,6.34s.55-3.29,1.37-4.75"/><path class="cls-2" d="M94.72,134.22c4.28-4.39,4.91-10.7,4.91-10.7,11.11-1.1,13.91-1.26,20.66-1.1,7.37.19,11.28,2.29,11.28,2.29l-.09,2.74s-4.18-2.28-13.92-.09c-6.79,1.53-10.28,2.93-16.38,4.85-3.76,1.18-6.46,2-6.46,2"/><path class="cls-4" d="M77.92,125s-1.7,5.25.48,5.36c5.1.24,19.9-6.58,19.9-6.58l-1.46,3.9s-13.59,6.58-19.9,5.36c-2.14-.41-1.21-4.39-1.21-4.39A36.34,36.34,0,0,1,77.92,125Z"/><path class="cls-2" d="M75.88,130s-.53,3.41,1.55,3.41c5.34,0,13.47-2.41,19.48-5.43,0,0-1.4,4.33-4.44,6.65,0,0-10.79,3.29-15.41,2.19C73.38,136,75.88,130,75.88,130"/><path class="cls-2" d="M78.76,125.63s-2.24,4.8,1.1,4.51c4.12-.37,11.48-2.35,18.56-6.22l.12-1.83a117.86,117.86,0,0,1,17.72-.85c10.73.18,13.31,1.73,14.31,2.1,0,0,.27-3.3.64-7.5s.82-7.23-4.27-13.62S116.13,96,111.83,96.36A25.1,25.1,0,0,0,96,104.05c-5.45,5.57-14.53,17.58-17.23,21.58"/><path class="cls-3" d="M99.94,186.77a2,2,0,0,0-1.22,3.66l-.36,2.07A2.3,2.3,0,0,0,96.72,194c-.36,1.44.49,1.89.49,1.89s1.36.32,1.64.37a75.23,75.23,0,0,1,12.9,3,87.36,87.36,0,0,1,13.32,5.21l1,.48a23.77,23.77,0,0,1,4.91-.48,32,32,0,0,0,4.38,0l-.38-1.21c1.17-.49,2.11-1.39,1.12-2.87a107.74,107.74,0,0,0-15.66-7.7,100.92,100.92,0,0,0-20.5-5.89"/><path class="cls-2" d="M100.48,190.44a112.38,112.38,0,0,1,14.9,4.25,156,156,0,0,1,17.44,7.37l-1.16,2.13a113.9,113.9,0,0,0-16.91-6.92c-9.83-3.14-11.9-3.52-14.13-3.85l-.14-3"/><path class="cls-3" d="M120.61,193.25a10.09,10.09,0,0,1-1.5-2.87s-.33.46-2.88,1a7.31,7.31,0,0,1-6.56-1.51,19.13,19.13,0,0,1-1.35-1.63,4.74,4.74,0,0,1-.6-1.24,6.09,6.09,0,0,1-3.58,1.8c-3.17.29-6.46-2.55-7.85-7.81a3.31,3.31,0,0,1-4.06-.42l-.18-.2a9.07,9.07,0,0,0-2.29-1.43h0a9.12,9.12,0,0,0,1.93-2.35h0a3.14,3.14,0,0,1,.49-.66,3.2,3.2,0,0,1,1.53-.89,3.27,3.27,0,0,1,.83-3.08.66.66,0,0,1,.19-.18,9.43,9.43,0,0,0,1.43-2.3h0a8.76,8.76,0,0,0,2.35,1.93h0a3.14,3.14,0,0,1,.66.49,3.38,3.38,0,0,1,1,2.11,3.27,3.27,0,0,1,2.87.88l.18.19a8.73,8.73,0,0,0,2.29,1.43v.05a8.73,8.73,0,0,0-1.93,2.35h0a4.43,4.43,0,0,1-.49.65,2.49,2.49,0,0,1-1.85,1c.33,1.61.63,2.41,1.7,2.56,1.6.22,3-1.52,3.52-4.39v-.06a2.82,2.82,0,0,1,.36-3,3,3,0,0,1,4.07-.42,3.05,3.05,0,0,1,.25,4.31l-.07.08c-.21.21.17,0-.06.12-.52,3.06.63,5.69,3,6.09a3.57,3.57,0,0,0,3.64-1.64,3.08,3.08,0,0,1-2.79-2.42.39.39,0,0,0-.08-.28,14.54,14.54,0,0,0-1.39-2.65v-.07a16.85,16.85,0,0,0,3.17-1.39h0a3,3,0,0,1,.83-.33,3.82,3.82,0,0,1,2.28.32h0a2.91,2.91,0,0,1,2.41-2.57l.29-.07a10.22,10.22,0,0,0,2.8-1.54l-.07.27a18.62,18.62,0,0,0,1.39,2.7l.17.24a3,3,0,0,1,.17,3.53h0a4.34,4.34,0,0,1,2.06,1.24,7.17,7.17,0,0,1,.36.91,10.85,10.85,0,0,0,1.82,3h.06a16.73,16.73,0,0,0-3.16,1.28c-.07.06,0,0,0,0-1.19.75-2.66,1.24-3.89.12a3.85,3.85,0,0,0,1.88,3.72c2.06,1.19,4.43-.31,6.19-2.8a4.13,4.13,0,0,1-.24-1.16,2.7,2.7,0,0,1,2.84-2.57h.16a3.16,3.16,0,0,1,3,3.05c0,1.34-.61,2.5-1.82,2.68-.85,2.32-1.56,4.51-.19,5.36.92.57,1.64.42,2.91-.61a2.43,2.43,0,0,1-.72-1.94,2.68,2.68,0,0,1,0-.8v-.06a10.4,10.4,0,0,0,.08-3h.06a16,16,0,0,0,2.77.21H141a3.59,3.59,0,0,1,2.86,1.27,3.26,3.26,0,0,1,2-1.1,2.82,2.82,0,0,1,.82,0h0a12.61,12.61,0,0,0,3.07.15v0a14.69,14.69,0,0,0-.16,2.65v.31a3.4,3.4,0,0,1-1.48,2.89,3.66,3.66,0,0,1,.81,1.68,3.51,3.51,0,0,1-.06.79,12.62,12.62,0,0,0-.17,3.07h-.06a16.64,16.64,0,0,0-2.63-.15h-.18A3.33,3.33,0,0,1,142.3,198c-4.41,3.17-8.25,3.35-10.94.62a6.11,6.11,0,0,1-1.63-3.67,4.49,4.49,0,0,1-1.24.57,12.22,12.22,0,0,1-1.79.32,7.61,7.61,0,0,1-6.19-2.64"/><path class="cls-2" d="M119.7,188.48a7.28,7.28,0,0,0,5.34,6.18,6.89,6.89,0,0,0,5.84-1.41v.05a5.94,5.94,0,0,0,1.5,4.78c2,1.92,6,1.44,9.79-1.47l.15-.12.06-.05a.67.67,0,0,1,.47-.15.73.73,0,0,1,.68.68,1.92,1.92,0,0,0,2.06,1.77h.24a5.42,5.42,0,0,1,1.65.17h0a5.35,5.35,0,0,1,.05-1.87h0a2.18,2.18,0,0,0,0-.51,1.89,1.89,0,0,0-.57-1.27l-.11-.13a.87.87,0,0,1,.27-1.35,2,2,0,0,0,1.07-1.93v-.16a5,5,0,0,1,.21-1.63h0a5.17,5.17,0,0,1-1.84,0h0a2,2,0,0,0-.49,0,2,2,0,0,0-1.66,1.15.81.81,0,0,1-.64.28.79.79,0,0,1-.6-.34,1.58,1.58,0,0,1-.15-.24,2,2,0,0,0-1.84-1H141a5.37,5.37,0,0,1-1.65-.2h0a6,6,0,0,1,0,1.89h0a1.4,1.4,0,0,0,0,.5,2,2,0,0,0,.76,1.45.79.79,0,0,1,.36.66.69.69,0,0,1-.26.52c-1.71,1.57-3.65,2.15-5,1.32-1.86-1.15-1.83-4.59.06-7.69v-.09a1.66,1.66,0,0,0,1.3-1.54,1.76,1.76,0,0,0-3.51-.17,1.42,1.42,0,0,0,.2.83c-.09.18-.17.34-.27.51-1.87,3.28-5.42,4.77-7.92,3.33-1.77-1-2.55-3.22-2.2-5.58v-.12a.65.65,0,0,1,1-.41,2.66,2.66,0,0,0,3.08.21l.17-.11a6.72,6.72,0,0,1,2-.71h0a7,7,0,0,1-1.17-2.07h0a3.92,3.92,0,0,0-.29-.58,2.72,2.72,0,0,0-1.71-1.13h.07a.66.66,0,0,1-.64-.69.68.68,0,0,1,.11-.34h0a2.44,2.44,0,0,0-.07-2.78l-.12-.16a6.72,6.72,0,0,1-.84-1.9,7.17,7.17,0,0,1-1.87,1h-.21a2.41,2.41,0,0,0-1.81,2.1h0a.71.71,0,0,1-.13.34.66.66,0,0,1-.93.12h.06a2.68,2.68,0,0,0-2-.21,2.38,2.38,0,0,0-.59.25h0a7.4,7.4,0,0,1-2.22.85h0a7.12,7.12,0,0,1,1.08,1.82l.06.19a2.65,2.65,0,0,0,2.52,1.81.55.55,0,0,1,.36.13.68.68,0,0,1,.18.86l-.06.1c-1.23,2-3.22,3.25-5.23,2.9-2.84-.5-4.63-3.91-4-7.64a2.15,2.15,0,0,1,.12-.56,1.67,1.67,0,0,0,.67-.51,1.74,1.74,0,0,0-.39-2.41,1.72,1.72,0,0,0-2.41.27h0a1.68,1.68,0,0,0,0,2v.1c-.51,3.6-2.66,6.27-4.83,6-1.56-.22-2.68-1.92-3-4.21a.62.62,0,0,1,.13-.58.75.75,0,0,1,.69-.28,2,2,0,0,0,1.5-.63,2.46,2.46,0,0,0,.3-.4h0a5.32,5.32,0,0,1,1.2-1.35h0a5.35,5.35,0,0,1-1.39-.9l-.11-.12a2,2,0,0,0-2-.44l-.26.09a.76.76,0,0,1-.67-.13.78.78,0,0,1-.32-.62,2,2,0,0,0-.55-2,3.79,3.79,0,0,0-.4-.3h0a5.23,5.23,0,0,1-1.42-1.18h0a6.24,6.24,0,0,1-.87,1.39.38.38,0,0,0-.11.11,2,2,0,0,0-.41,2.17.85.85,0,0,1-.09.88.86.86,0,0,1-.55.33H94.4a1.86,1.86,0,0,0-1.25.62,2,2,0,0,0-.29.42h0a5.72,5.72,0,0,1-1.15,1.48h0a5.28,5.28,0,0,1,1.38.92l.11.13a1.92,1.92,0,0,0,2.72.05l.06-.05a.71.71,0,0,1,1-.09.76.76,0,0,1,.27.41v.27c1,4.64,3.83,7.58,6.61,7.41a6,6,0,0,0,4.19-2.73v-.05a6.94,6.94,0,0,0,3.61,4.84,7.43,7.43,0,0,0,8.07-1.37"/><path class="cls-3" d="M145.32,194.28a1.84,1.84,0,0,1-3.68-.18,1.84,1.84,0,1,1,3.68.18h0"/><path class="cls-2" d="M144.55,194.25a1.07,1.07,0,0,1-1.11,1,1,1,0,0,1-1-1,.49.49,0,0,1,0-.12,1,1,0,0,1,1.11-1,1.07,1.07,0,0,1,1,1.11"/><path class="cls-3" d="M123.87,181.67a1.84,1.84,0,1,1-3.68-.16,1.83,1.83,0,0,1,1.92-1.76h0a1.85,1.85,0,0,1,1.75,1.92"/><path class="cls-2" d="M123.1,181.64a1.09,1.09,0,0,1-1.11,1,1.07,1.07,0,0,1,.1-2.14h0a1.08,1.08,0,0,1,1,1.12"/><path class="cls-3" d="M99.42,177.54a1.84,1.84,0,0,1-3.68,0,.74.74,0,0,1,0-.21,1.84,1.84,0,1,1,3.67,0,1.47,1.47,0,0,1,0,.21"/><path class="cls-2" d="M98.68,177.51a1.06,1.06,0,1,1-2.12.08.55.55,0,0,1,0-.18,1,1,0,0,1,1-1.1,1.06,1.06,0,0,1,1.1,1,1.08,1.08,0,0,1,0,.18"/><path class="cls-3" d="M97.75,192.8c.36.31,1.25.73,1.85,1.28s1.22.19,1.68,0c.63-.28,1-.5,1.38-.67.75-.39.44-1-.15-1.65s-1-1-1.44-1.54a1.9,1.9,0,0,0-2-.31,6.87,6.87,0,0,0-1.53.89,1.49,1.49,0,0,0,.19,2"/><path class="cls-2" d="M101.6,192.06a1.43,1.43,0,1,1-1.37-1.5,1.44,1.44,0,0,1,1.37,1.5"/><path class="cls-3" d="M105.63,194.25c.35.31,1.12,1.16,1.71,1.72s1.22.18,1.69,0c.63-.29,1-.5,1.37-.68.75-.38.44-1-.15-1.64s-1-1.05-1.44-1.54a1.35,1.35,0,0,0-1.67-.29c-.62.35-1.09.48-1.83.86-.49.26-.33,1,.32,1.6"/><path class="cls-2" d="M109.34,193.94a1.45,1.45,0,0,1-1.5,1.37,1.43,1.43,0,0,1,.13-2.86h0a1.44,1.44,0,0,1,1.36,1.49"/><path class="cls-3" d="M114.81,197c.35.31,1.12,1.16,1.71,1.71s1.22.19,1.69,0c.63-.29,1-.5,1.37-.68.75-.39.44-1-.15-1.64s-1-1-1.44-1.55a1.38,1.38,0,0,0-1.67-.29c-.63.36-1.09.48-1.84.87-.49.25-.32,1,.33,1.6"/><path class="cls-2" d="M118.52,196.69a1.43,1.43,0,0,1-2.86.07.67.67,0,0,1,0-.2,1.43,1.43,0,0,1,2.85-.07,1.34,1.34,0,0,1,0,.2"/><path class="cls-3" d="M123.42,200.4c.35.31,1.12,1.17,1.71,1.72s1.22.18,1.69,0c.63-.29,1-.49,1.37-.68.75-.38.44-1-.15-1.64s-1-1.05-1.44-1.55a1.36,1.36,0,0,0-1.67-.28c-.62.35-1.09.47-1.83.86-.49.26-.33,1,.32,1.6"/><path class="cls-2" d="M127.09,200.1a1.43,1.43,0,1,1-1.36-1.5,1.44,1.44,0,0,1,1.36,1.5h0"/><path class="cls-3" d="M136.35,204.75c.3-.12,0-1.06-.2-1.52-.48-1.34-1.41-.56-1.83-1.06a1.36,1.36,0,0,0-1.67-.28c-.63.35-1.09.47-1.84.86-.49.26-.32,1,.32,1.6.16.14.31.29.46.45,0,0,4.41.09,4.76-.05"/><path class="cls-2" d="M134.85,203.78a1.28,1.28,0,0,0-1.31-1.23h0a1.39,1.39,0,0,0-1.48,1.26l1.41.06a5.2,5.2,0,0,0,1.47-.09"/><path class="cls-2" d="M128.42,203.62a136.14,136.14,0,0,0-12.82-5.16C105.51,195,100,194,99.31,193.91c-1.1-.13-1.6,1-.35,1.31a104.51,104.51,0,0,1,16.27,4.47c4.09,1.4,7.59,2.8,10.38,4a7.09,7.09,0,0,1,.94-.15c.48,0,1.87.07,1.87.07"/><path class="cls-2" d="M100,189.56A104.63,104.63,0,0,1,116.27,194a110,110,0,0,1,17.63,7.54c.84.6,1.6-.56.29-1.25a123.41,123.41,0,0,0-17.55-7.52c-10.09-3.47-15.59-4.46-16.3-4.55-1.1-.13-1.6,1-.35,1.31"/><path class="cls-2" d="M130.57,197.47a6.93,6.93,0,0,1-.74-2.47,4.49,4.49,0,0,1-1.24.57,12.66,12.66,0,0,1-1.59.29h0c1.36.59,2.57,1.14,3.58,1.63h0"/><path class="cls-2" d="M108.32,188.27a14.79,14.79,0,0,0,1,1.25h0c-1.46-.43-2.74-.78-3.84-1.06h0a7,7,0,0,0,2.17-1.45,4.74,4.74,0,0,0,.6,1.24"/><path class="cls-2" d="M120.67,193.28h-.06a10.09,10.09,0,0,1-1.5-2.87s-.33.46-2.87,1h0l-.55.11c.45.14.9.3,1.36.46,1.27.43,2.47.87,3.63,1.3"/><path class="cls-2" d="M101.64,151.87c-1.73,3.47-1.46,5.51-.09,5.58,3.39.15,8.7-4.87,15.68-9.88a33.87,33.87,0,0,1,10.19-4.7c4.09-1.1,4.94-.74,6.28-.1a2.26,2.26,0,0,1,1.19,3v0s.91-3.65-7.91-1.09c-6.51,1.88-10,6.28-16.84,11.24-4.64,3.38-9.37,5.12-11.19,2.65s2.73-6.67,2.73-6.67"/><path class="cls-2" d="M122,148.67a5.49,5.49,0,0,1,1.7-1c.11,0,4.37.76,6.55.25,3.91-.92,5.88-2.83,5-.19-.63,1.92-3.09,2.24-6.36,2.57a14.16,14.16,0,0,1-6-.55l-.88-1.1"/><path class="cls-3" d="M167,176.35a10.87,10.87,0,0,0-1.69-1.1,13.5,13.5,0,0,1-7.77-3.66c-2.07-2.08-5.58-6.71-5.58-6.71a26,26,0,0,0,4.25,6.83A14.41,14.41,0,0,0,167,176.35"/><path class="cls-3" d="M97.88,195.3s1.36.21,6.85,1.65a137.54,137.54,0,0,1,13.55,4.17c4.31,1.58,7.16,2.67,7.16,2.67,1.51-.6,3.58-.13,7.32-.17,5.78,0,8.09,2.1,10.37,2.23,3.16.18,6.86-1.95,8.37-1.95,1,0-.93,4.3-4.91,6.28a34.82,34.82,0,0,1-8.92,3.35c-.58.15.58-.14,0-.06a58.8,58.8,0,0,1,8.25,1c4.46,1,7,4.8,8.31,6,1.46,1.37,4.83-.73,4.83-.73-.55,3.84-1.64,5.82-4.16,7.44a10.67,10.67,0,0,1-6.43,1.22,11.43,11.43,0,0,1,2.43,6.28,7.08,7.08,0,0,1-2.67,6.27,7.43,7.43,0,0,0-4.67-5.42,19,19,0,0,1,1.94,8.35,7.47,7.47,0,0,1-4,6.65,19.38,19.38,0,0,0-3.45-6.28,12.17,12.17,0,0,0-4.64-2.93A15.38,15.38,0,0,1,132,248.7a10.39,10.39,0,0,1-6.8,6c.55-2.56-.66-5.61-2.79-8.17a35.21,35.21,0,0,1-2.42-3.29c.34,5.48-3.35,7.36-5.58,8.41a17.68,17.68,0,0,1-3.52,1.22c.73-2.65-.79-5.48-2.07-8.23a16,16,0,0,1-1-6.74,7.94,7.94,0,0,0-3,2.81c-1.75,2.76.09,6.68.09,6.68s-5.43-1.89-7.1-5a9.67,9.67,0,0,1-.27-8.32s-.45,0-1.45,1.64-.37,6-.37,6-4.28-3.3-4.55-7.23.46-5.58,4.1-8.41a6.47,6.47,0,0,0,2.64-2.47,44.21,44.21,0,0,0-5.56-2.44,27.43,27.43,0,0,0-7.1-1.46c.79-1.83,4.24-2.21,8.1-1.59a54.75,54.75,0,0,1,7.38,1.47c-1.58-1.83-4-4.65-11.83-6.22-7.13-.68-7.42,4.53-8,4.57-.29.07-2.24-3.32-3.08-6.78-.91-3.69,1.15-7.85,3.42-9.11,4.3-2.32,14.59-1.17,14.59-1.17s-1.75-2,2.07-5.58"/><path class="cls-2" d="M98.36,196.28s2.69.45,6.86,1.58c4.91,1.35,7.52,2.2,12.07,3.84s7,2.75,7,2.75a2.31,2.31,0,0,0-.23,2.4,2.81,2.81,0,0,1,1.49-1.43c1.17-.51,2.52-.79,7.63-.42,3.85.27,5.37,1.73,9,2.19a12.28,12.28,0,0,0,7.34-1.46c-1.21,2.44-5.75,4-7.79,4.85-3.74,1.45-6.82,2.29-9.26,2.1a27.59,27.59,0,0,1-4.62-.82c.41.51,2.68,1.73,5.72,2.28,3.2.7,9.4.79,12.92,2.08s5.28,4,6.73,5.54,3.95.19,3.95.19a7.29,7.29,0,0,1-5.75,4.92,15.87,15.87,0,0,1-5.91,0,15.89,15.89,0,0,1,3.82,7.23,4.66,4.66,0,0,1-.73,3.83,13,13,0,0,0-2.61-2.68,8.21,8.21,0,0,0-4.67-1.43,23.08,23.08,0,0,1,2.55,10.43c-.18,3.1-1.91,3.93-1.91,3.93a14.17,14.17,0,0,0-3.73-5.49,16.54,16.54,0,0,0-6.43-3.29c.79,3.66,0,6-1.49,9.14a9.46,9.46,0,0,1-3.73,4.21c.46-2.93-1.79-5.52-3.91-8a42.17,42.17,0,0,1-3.73-5s0,5.74-1.58,7.81a12.3,12.3,0,0,1-4.85,3.66,9.6,9.6,0,0,0-.37-2.56c-.42-1.71-1.55-3-2.58-6.34a12.17,12.17,0,0,1,0-6.34,10.05,10.05,0,0,0-6.06,4.39,6.19,6.19,0,0,0-.7,5,11.06,11.06,0,0,1-3.28-2.92c-1.36-1.83-1.39-4.39-.91-7.41.42-2.61.82-4.11.82-4.11-3.46,1.55-5.91,4.48-5,8.13a10,10,0,0,1-2.1-5.61c-.06-3.17,2.56-5.17,4.92-7.19a15.88,15.88,0,0,0,2.17-2.39,17,17,0,0,0,5.65,1,3.44,3.44,0,0,1,2.48,1.1,4.39,4.39,0,0,0-.12-1.53,3.64,3.64,0,0,0-.54-1.1s-3,1.63-10.32-1.7a38.42,38.42,0,0,0-8.92-2.44,12.67,12.67,0,0,1,6.74.37c5.44,1.82,8.61,1.58,8.61,1.58s-.62-2.26-3.76-4.76A19.35,19.35,0,0,0,88.5,212c-5.64-.7-7.82,3.12-7.82,3.12a16.31,16.31,0,0,1-1.62-4.49A7.07,7.07,0,0,1,82.42,203c4-2,10.45-1.07,14-.67,0,.07.06.06.06.06.18.74-.09,2.2,1,3.3,1.56,1.52,3.11,1.26,4.88.88a7.28,7.28,0,0,0,3.2-2,3.81,3.81,0,0,0,.51.12,26.44,26.44,0,0,0,3.09.24,21.11,21.11,0,0,1-3.25-1.56c-1.33-.77-2.67-2.13-4.55-2.74-2.59-.84-2.54.3-4.12-.18-1.06-.33-.46-2.5,1.09-4.15"/><path class="cls-3" d="M90.78,205.42s-1.83-.76-1.09-1.66,1.48-1,3-.49A10.13,10.13,0,0,1,95.5,205s-2.49-1.5-4-.84a1,1,0,0,0-.74,1.28"/><path class="cls-2" d="M100.48,202.13c1.94.37,2.31,1.16,3.07,2.23a4,4,0,0,1-4.28,1c.07.13,1.3-.29,1.64-1.1a2,2,0,0,0-.43-2.13"/><path class="cls-3" d="M130.42,206.27c-4.51-1.26-4.54,1.55-4.54,1.55a21.81,21.81,0,0,0,2.89.85l-1.28-1s.38-.52,2.51-.16l2.1,1.37-.33-1a65.27,65.27,0,0,0,7.87,1.32,3.67,3.67,0,0,0,2.73-.84c-2.08.51-7.44-.75-12-2"/><path class="cls-3" d="M111.34,230.6c-.82,2-3.74,4.11-3.47,7.39a13.22,13.22,0,0,0,1.5,5.32,13.74,13.74,0,0,1,.09-6.86c1-2.92,1.64-2.68,2.46-5,1.26-3.62.09-5,.09-5a12.48,12.48,0,0,1-.67,4.2"/><path class="cls-3" d="M127.3,234.93c-.19-.61.45-1.59.45-1.59a8.11,8.11,0,0,0,2.58,4.15,22.22,22.22,0,0,0,5.4,3.47,5.89,5.89,0,0,1-4.91-1.15,10.18,10.18,0,0,1-3.52-4.88"/><path class="cls-3" d="M147.59,229.6a21.61,21.61,0,0,0-2.73-3.44,17.61,17.61,0,0,0-4.64-3.15,22.8,22.8,0,0,1,4.91,2.15,8.12,8.12,0,0,1,2.6,2.52l-.14,1.92"/><path class="cls-3" d="M209.2,195.94c-1,1.37-.46,3,1.34,3,2.12,0,3.39-4.33,3.39-4.33a6.29,6.29,0,0,1,1.82,6.22c-1.46,5.94-7.85,6-11.28,3.47-3.19-2.37-3-4.84-3-4.84l-3.05,1.79a5.29,5.29,0,0,1,2.55,3.93c.41,5.65-7.15,7.77-10.6,3.25-5-6.58,3.36-12.71,3.36-12.71-5.71-2.76-3.93-9.59.53-11.07,5.1-1.69,7.22,1.69,7.22,1.69-.56.14-3.78.3-3.83,2.49-.06,2.52,3.74,3.45,7.54.84a14.62,14.62,0,0,0,5.88-9.64,16.07,16.07,0,0,0-7.46-6.86c-6.14-2.87-10.74-.54-10.74-.54,4.31,1.37,3.46,6,3.46,6s-5,2-9.53.12c-4.24-1.76-6.61-1.09-6.61-1.09,3.82,2.46,5.76,8.19.85,12.22-.14.11-3-3.5-4.55-5.15-6.37-6.83-11.71-4.15-17.23-6.22a19.94,19.94,0,0,1-7.11-4.4s.06.95.09,2.78a15.62,15.62,0,0,1-.46,3.66,12.88,12.88,0,0,1-4.41-1.92,10.14,10.14,0,0,1-3.28-6.86,25.2,25.2,0,0,1,.09-5.21,5.29,5.29,0,0,1-2.82,1.65,7.29,7.29,0,0,1-4.09,0c.73-4.94,1.11-10.89-.64-16.74A69.55,69.55,0,0,0,131.72,140l1.45.79s1.21-2.43.85-3.17a6,6,0,0,0,4,3.42c3.28,1.1,3.61,1.34,5-.22,0,0,4,3.39,5.64,6.13s4.56,4.09,8,5.21a15.5,15.5,0,0,0,5.64.28c1.46,7-4.55,7-4.55,7a14.65,14.65,0,0,0,5.92,2.19,32.17,32.17,0,0,0,5.28.46,5.75,5.75,0,0,1-3.55,6,8.86,8.86,0,0,1-4.49.63s1.76,2.69,2.54,2.81a18.32,18.32,0,0,0,7.41-1c7.55-2.83,6.68-7.89,7.28-10.6a26.18,26.18,0,0,1,2.45-5.95,7.68,7.68,0,0,1,3.83,3.85,7.48,7.48,0,0,1,.36,5s.69-1.13,1.82-2.74c3.27-4.66,9.83-2.38,9.83-2.38-.46,4.3-2.37,5.12-2.37,5.12s3.08-1.52,9.74.19c10.37,2.65,14.47,10.79,13.65,19.11-.87,8.85-5.28,9.78-8.28,13.71m-12,6.13c-1.27.79-1.65.81-1.73,1.69a1,1,0,0,0,1.78.69c.85-.8.07-2.36,0-2.32Z"/><path class="cls-3" d="M177,141.8a6.09,6.09,0,0,1,5,5.31c.59,4.16-3,8.23-8.83,7.68-5.05-.47-7.79-4.62-8.28-8.5-.73-5.76,2-9.42,4.37-11.8a8.27,8.27,0,0,1-4.64-2.55c-2.45-2.57-3.09-8.24-3.09-8.24a18.19,18.19,0,0,1,5.36.19c2.79.58,4.19,1.31,6.74.45,2.73-.91,3.27-2.1,3.27-2.1s-5.33,2.72-8.19-2.1c-2.55-4.3.28-9.07.64-9.6,0,0,1.3.06,5.19,3.47,1.85,1.63,3.21.56,3.09-.09-.73-4.12-6.46-8-13.74-5.4-6.64,2.34-8.64,9-8.64,9l-3.19,2.28c1.18-5.85-.09-9.14-.09-9.14,6.46-12.62,12.83-10.15,17.56-13.35,5.61-3.79,9.65-2.75,9.65-2.75s1.09,4.67-1.46,6.5a22.59,22.59,0,0,1,5.56.45c3.91.74,5.11,1.82,7.91,3a21.42,21.42,0,0,0,11.92,1.74s-1,8-7.83,6.67c0,0,1.19,2,1.28,6.22a12.35,12.35,0,0,1-1.09,5.49,2.3,2.3,0,0,0,2.95,1.42,2.33,2.33,0,0,0,.33-.14,8.33,8.33,0,0,0,3-2.56c1.91,6.13.09,11.7-5.37,12.53a7,7,0,0,1-7-3.2,17.42,17.42,0,0,1-8.64,6.12c-5.54,1.51-9.08,3.92-8,7.13.81,2.47,4.91,2.66,4.91-.45a16.26,16.26,0,0,0-.6-3.67"/><path class="cls-3" d="M102.67,125.38a114.12,114.12,0,0,0-9-8.17c-5.92-4.48-7.07.73-6.34,3.66,0,0-7.4-3.66-4.61-9.51,1.38-2.89,6.1-3.23,9.77-.18a.24.24,0,0,1,.09.18s-1-2.2,1.79-5.24c0,0,3.16.89,4.76,5.51a39.63,39.63,0,0,1,1.36,4.94,7.42,7.42,0,0,0,1.82,1.19,4.15,4.15,0,0,1,1.28-3.6c2.55-2.44,6.06.12,6.06.37,0,0-3.39,2.68-1.57,6.34s5,5.39,8.73,6c9.47,1.47,14-18.41,7.44-31.3-5.75-11.3-13-3.08-13-3.08l-4.49-.36s.15-4.87,7.53-5.49c8.73-.73,15.07,6.55,17.8,14.42,2.41,6.93,1.22,18.12-3.55,25.14s-13.1,10.09-25.9-.79"/><path class="cls-2" d="M133.12,140.07s1.68,3.8,2.82,6.31a35.4,35.4,0,0,1,2.64,20.85s4.13.21,5.22-2.59c.88-2.26-.24-5.65.36-4.51,2.07,3.9.79,7.83,1.34,12.22.68,5.5,5.22,6.31,5.22,6.31a25,25,0,0,0-.13-7.77c-.07-.5,3.51,4,8.56,6.25,3.88,1.76,9,.24,15.17,3.84,0,0-2-1.38-6.62-3.9s-8.19-8.23-10.07-10.06a18.79,18.79,0,0,0,5.5.33c4.59-.66,4.45-4,4.45-4a27.3,27.3,0,0,1-5.34-.43c-2-.44-5.41-1.64-7-4.48a14.45,14.45,0,0,0,3.18-.57,4.22,4.22,0,0,0,2.86-4s-1,.83-4.82-.18c-2.9-.77-6.91-2.71-8.65-5.72a19.69,19.69,0,0,0-5.82-6.26s-3.55,0-5.46-1.47a14.23,14.23,0,0,1-3-3.1,9.6,9.6,0,0,1-.37,2.92"/><path class="cls-2" d="M179.35,137.87a19.77,19.77,0,0,0,3.73-1.74,31.7,31.7,0,0,0,6.82-6c.46.36.28,3.29,4.47,4.11,4.4.87,7.37-3.35,6.64-8a4.53,4.53,0,0,1-4.07,1.53,4.11,4.11,0,0,1-3-2.72,14,14,0,0,0,1.19-5.48,12,12,0,0,0-1.19-5.95,29.75,29.75,0,0,0-2.41-3.93c-.58-.87.36-.18.36-.18a7.93,7.93,0,0,0,2.35,1.61c5.61,2.23,7.25-3.44,7.25-3.44a24.26,24.26,0,0,1-5.32-.14,20.89,20.89,0,0,1-6.92-2.37,19.21,19.21,0,0,0-9.64-2.79c-1.83-.12-5-.16-6-.22a24.91,24.91,0,0,0-3,.13,10.79,10.79,0,0,1,1.28-.46c.64-.18,1.41-.15,3-.46,3.34-.67,3-5.58,3-5.58-4.12-.48-6.34,3.18-12.46,4.76-5.42,1.4-10.23,5.09-12.53,12.34l-.3,6.59s.81-1.92,1.82-4a16.8,16.8,0,0,1,6.64-7.13,14.47,14.47,0,0,1,11.19-1.55,9.61,9.61,0,0,1,6.28,5.12c.82,1.37.87,2.92.55,3.29-2.19,2.56-4.45,1.7-6-.09a11.89,11.89,0,0,0-3-2.38,6.61,6.61,0,0,0,.36,7c2.34,3.29,8.65.55,8.65.46a5.91,5.91,0,0,1-1,2.65,7.77,7.77,0,0,1-8.74,3.2,18,18,0,0,0-5.82-.82c0,.18,1.12,6.62,5.18,7.59,5.37,1.28,11.53-2,14.57-4.57,0,0,1.72,3.93-3.92,9.69"/><path class="cls-3" d="M172.62,101.58a47.7,47.7,0,0,0-9.1,1.85s8.73-1.4,10.92-1.4a17.65,17.65,0,0,1,7.91,1.46c3.91,1.66,5.91,3.91,7.1,7.14a23.45,23.45,0,0,1,1.37,5,18.13,18.13,0,0,0-.82-5.22c-.94-3.21-3.55-6-7.92-7.86a20.28,20.28,0,0,0-4.09-1.1,48,48,0,0,0-5.37.1"/><path class="cls-2" d="M176.8,138.61c6.28-5.4,6.34-10.39,6.28-10.33-5.34,5.61-10.74,5.76-10.74,5.76a13.88,13.88,0,0,0-5.64,7.77c-1.3,5.17.89,9.94,5.19,11.07s7.73-1,8.46-3.3c1.28-3.93-1.54-5.76-1.54-5.76s1.45,3.48-1.64,4.94c-2.64,1.24-6.28.09-6-4.3s5.51-5.74,5.64-5.85"/><path class="cls-2" d="M104.12,115.26c-1.29,1.39-.36,4.51-.36,4.51a12.38,12.38,0,0,1-2.67-1.28c-.22-.14-.1,1,.27,2.2.25.83,1,2.77,1,2.77,10.86,10.45,18.78,8.23,22.27,5.7,4.11-3,8.31-11.77,7.4-21.82-1-11.4-9.83-21.1-18.08-19.88a8.5,8.5,0,0,0-6.31,4.15l2.91.12s2.65-2.84,5.1-3c3.91-.18,12.27,2.66,12.74,20.21.27,10.24-4.37,23.11-15.65,17.62-1.88-.91-4.78-3.19-5.7-6a5.27,5.27,0,0,1,1.09-5.86,3.13,3.13,0,0,0-4,.49"/><path class="cls-2" d="M198.92,170.43a10.85,10.85,0,0,0-8.65,2.2c-.35.26,2.25,1.34,2.25,1.34,2.24.73,2.42,3.6,2.42,3.6s-3.58.85-5.76.36a67,67,0,0,0-7.1-1.65,11,11,0,0,0-4.61.8,18.73,18.73,0,0,1,3.88,3.87,5.39,5.39,0,0,1-.36,6.91s-1.16-1.26-3.28-3.83c-1.85-2.26-3.32-3.19-7.7-6.53a43.09,43.09,0,0,1-5-4.45c3.64-.3,6.92-.42,10.8-3.66,3.09-2.56,3.09-4.72,3.58-8.16a19.76,19.76,0,0,1,1.73-5s2.82,2,2.58,4.9-.85,4.42-2.13,5.67c0,0-.12,0,1.22-.48a12,12,0,0,0,4.43-4.33c2.09-4.12,7.55-3.2,7.55-3.2s.09,1.74-2.27,3.66c-1.28,1-2.37,2.1-3.19,2.65,0,0,2.36-1,8.52-1.22,15.5-.54,22.21,15,16.2,24.69a15.28,15.28,0,0,0-2.49-10.18,17.33,17.33,0,0,0-12.58-8"/><path class="cls-2" d="M202.65,197.07c-.73,6.46,5.91,7.93,8.55,7a4.92,4.92,0,0,0,3.28-6.16,4.29,4.29,0,0,0-.19-.54,7.07,7.07,0,0,1-1.82,2.31c-1.34,1-3.89,1-4.82-.73-1.45-2.74.62-4,3.1-6.4,3.3-3.17,3.28-4.15,3.27-4.21-.7-4.57-2.21-6.52-2.21-6.52-.73,3.2-4.7,12.38-13.35,10.18a3.36,3.36,0,0,1-1.85-4.38,1.63,1.63,0,0,1,.09-.19,3.7,3.7,0,0,1,2.43-1.71,6,6,0,0,0-3.88-.3,5.1,5.1,0,0,0-3.89,4.75c0,3.12,1.91,4.21,4.82,5a49,49,0,0,0-3.82,3.52c-2.07,2.13-3.43,5.84-1.06,8.82s6.82,2.36,8-.31a4.29,4.29,0,0,0-.74-4.55h0c.63,2.46-1,3.44-2.51,3.28a2.17,2.17,0,0,1-1.86-2.35c.13-.85.73-1.52,2.28-2.53l6.16-4"/><path class="cls-3" d="M176.19,173.66a21,21,0,0,0,7.41-1.58,15.48,15.48,0,0,0,4.73-3.05,27.82,27.82,0,0,1-5.1,2.07c-3.15,1-7,2.56-7,2.56"/><path class="cls-3" d="M191,119.73s-.46,6.54-2.64,10.38c-2.06,3.62-3,4.66-6.73,7.13l1.36-.19a13.82,13.82,0,0,0,5.37-5.3,21.63,21.63,0,0,0,2.64-12"/><path class="cls-3" d="M136.94,141.17a28.39,28.39,0,0,1,4.43,6c1.22,2.36,3.76,6.58,3.76,6.58s-2.42-8.66-7.28-12.44c-.61-.47-.91-.18-.91-.18"/><path class="cls-3" d="M156.84,126.36c2.83-4.85,2.14-8.22,1.1-10.06a4.63,4.63,0,0,0-2.37.55,18.76,18.76,0,0,0-2.25,1.22,23.36,23.36,0,0,0-.3-4.94,14.83,14.83,0,0,0-2.43-5.84,10.2,10.2,0,0,0-3.87,4.48,15.69,15.69,0,0,0-1,3.43c0-.11-.21-.79-1.48-2.13a11.4,11.4,0,0,0-2-1.53s-3.89,5-2.55,9.88c.74,2.74.06,7.25-4.13,6.83a4.47,4.47,0,0,1-3.76-3.3,4.32,4.32,0,0,0,3.09,1.89A9,9,0,0,0,136,120.5c-.7-3-3-4.56-3.94-7.31a34.15,34.15,0,0,1-1.64-7.81s.61-19.13-8-19.26c-8.26-.12-10.08,9-10.08,9l5.46.13s-.68-1.77,2.31-3.78c5.25-3.54,7.43,6,2.7,17.86,0,0-1.55,2.65-2.91,5.39a17.79,17.79,0,0,0-2.37,6.77,10.1,10.1,0,0,0,1.79,6.74,9.38,9.38,0,0,0,2.76-2,10.82,10.82,0,0,0,.82-1.29,37.35,37.35,0,0,1,.06,4.49c-.1,3.66-.06,7.19,1.4,9.14a7,7,0,0,0,3,2.1,2.67,2.67,0,0,0,1-1.13,4.39,4.39,0,0,0,.43-1.28c0,.31.28,1.06,1.75,2.2A15.93,15.93,0,0,0,133,142.1a8,8,0,0,0,1-1.46,3.33,3.33,0,0,0,.47-1.77,8.58,8.58,0,0,0,5.21,3.87,13.89,13.89,0,0,0,6.56-.45,7.14,7.14,0,0,0-.79-1.89,7.8,7.8,0,0,0-1.37-1.71c.83.66,4.57,1,7.25,0,6.46-2.29,5.34-7.77,5.34-7.77l-1.51-.18a14,14,0,0,0-1.7-.13,19.68,19.68,0,0,0,3.39-4.26"/><path class="cls-2" d="M131,114.47c1.12,2.56,2.54,3.43,3.55,5.55a6.45,6.45,0,0,1-.18,5.48,10.57,10.57,0,0,1-4.28-3.81,10.29,10.29,0,0,0,1.24,5,5.89,5.89,0,0,0,5.64,2.87c3.28-.1,4.86-5,4-7.81-1.15-4,1.61-8.29,1.61-8.29s1.61.63,2.3,3.29a7.18,7.18,0,0,0,1.64,3.18,21.52,21.52,0,0,1,.91-6.86,8.57,8.57,0,0,1,2.82-3.94,20.23,20.23,0,0,1,1.61,3.91,15.21,15.21,0,0,1-.36,7.43c.24.74.91-.06,2.78-1.58a4.41,4.41,0,0,1,2.92-1.16,7.7,7.7,0,0,1-.4,5.58,22.54,22.54,0,0,1-5,7.13c-.76.68-1.82,1.71-1.09,1.56a16.31,16.31,0,0,1,4.68-.13,6.44,6.44,0,0,1-3.7,5.37c-4.13,2.11-10-.49-10.86-.12,0,0-.08,0,0,.06a9.73,9.73,0,0,1,3.82,4.14,10.86,10.86,0,0,1-5,.28c-3.18-.92-3.48-2.17-4.64-3.57-.84-1-1.67-1.82-1.67-1.83s0,2.8-.72,3.78c0,0-2.25-.3-3.4-3.78,0,0-.85-2.92-1.12-1.46,0,0-.28,3.29-1,4.21,0,0-2.54-.43-2.9-4.94s.54-8-.61-11c0,0,.06-.54-.79-1.46,0,0-.36,4.15-3,4.94a7,7,0,0,1-1-5.18,24.75,24.75,0,0,1,2.48-6.19c2.64-4.36,6.16-12.73,5.19-20-.55-4.11-2.27-5-3.55-5.21a6.57,6.57,0,0,0-6.28,4.85l-3-.09s2.55-7.6,8-7.5,7.64,7.5,7.73,15c.08,6.69,0,8.51,1.64,12.35"/><path class="cls-3" d="M135.73,133.12s4,.88,6.37.19c7.86-2.29,7-11.8,7-11.8s-1.1,9.51-7.31,11.06a23.3,23.3,0,0,1-6,.55"/><g class="cls-5"><path class="cls-2" d="M92.26,115c-6.09-3.3-6.09,3.65-6.09,3.65s-4-2.89-1.94-6.58c2.57-4.66,10.31,1.83,10.31,1.83a5.71,5.71,0,0,1,.24-6.46s2.94,1.61,4.31,8.5a17.52,17.52,0,0,0,3.36,7.59c-.09,0-6.73-6.67-10.19-8.53"/><path class="cls-3" d="M130.11,42.87c1.41-1.46,3.08-3.46,4.47-4.16a7.15,7.15,0,0,1,3.73-1c-.55,2.74,1.64,6.5,6.64,5.53.1,0,4.1.87,6.65-1.87,5.22-5.63-.28-11.62-.28-11.62a6.79,6.79,0,0,0,4.92-6.22c.63-10.15-10.2-9.41-10.2-9.41s2.1-1.83,1-5.49c-1.24-4.19-6-7.41-12.1-5.67a13.94,13.94,0,0,0-8.46,7c-.55-2.56-1.27-6.22-4.82-8.41s-9.1-2-11.65.64a6.32,6.32,0,0,0-1.59,5.17c-2.27.09-7.19-.28-9.46,3.66-2.48,4.28-.73,7.59-.73,7.59a6.93,6.93,0,0,0-3.91,2.46c-2.18,2.39-2.46,5.49-.92,8.6a3.55,3.55,0,0,0,4.46,2.1s3.19,2.75,6.28-.09a4,4,0,0,0,1-4.57,2.65,2.65,0,0,1,2.27-1c2,0,2.42,5.27,1.65,9.45h0s-1.47.58-2.07,3.08a5.83,5.83,0,0,0,.27,4.34s-1,.08-1.33,3c-.28,2.54.58,3.55.58,3.55s-1.28,1.16-1.71,4.34a6.61,6.61,0,0,0,.43,3.78s-1,.39-1.52,3.43a6.94,6.94,0,0,0,.45,3.9l13.58,4.54s1.14,0,2.44-2.41a6.25,6.25,0,0,0,.54-4.12s1.36-.44,2.47-3c1.29-3,1-4.53,1-4.53a4.2,4.2,0,0,0,2.59-2.6,6.89,6.89,0,0,0,.3-3.37s1.27-.41,2.52-3a5.35,5.35,0,0,0,.63-3.65"/></g><path class="cls-2" d="M109.92,35.74c1.16-4.36.68-10.28-2-10.69-1.57-.24-3.37.51-3.87,1.56-.37.78.87,2.28-.31,3.56a4.28,4.28,0,0,1-4.51,1.15c-1.87-.64-1.87-3.45-1.32-5.45a5.53,5.53,0,0,0-1.28,2.47c-.09,1.1.64,2-.09,2.29s-3.46-2.11-2.82-5.58a6.53,6.53,0,0,1,4.91-5.4,4.84,4.84,0,0,0,1.28,1.46c.91.74,3.18.65,3.18.65a2.34,2.34,0,0,0,2.85.45,2.57,2.57,0,0,0,1.64-2c3.58,1.4,5.44,6.33,3.55,15.81l-1.21-.23"/><path class="cls-2" d="M114,36.61c-1.48-.39-2-.48-2-.48,1.39-7.08,1.92-14.32-4-17.19,0,0,.12-1,.48-2.86s2.49-1.71,3.94.12a28.54,28.54,0,0,1,2.67,4.27s-.62-4-3.41-6-4.72-.32-4.72,1.5c0,1.22-.36,4.88-2,5.17-2.2.39-3.08-2-3.08-4.19,0,0-.49,2.8.12,3.41a3.33,3.33,0,0,1-2.91-2.56,7.6,7.6,0,0,1,1.09-6.49c1.37-2,4.06-2.89,8.25-2.77a3.5,3.5,0,0,0,1.21,2.22,2.23,2.23,0,0,0,2.28.23,2.17,2.17,0,0,0,1.91,1.24c1.24.07,1.27-.1,1.27-.1s2.43,1.57,3.22,7.32-.25,10.76-2.32,17.71c0,0-.55-.13-2-.53"/><path class="cls-2" d="M116.75,37.37s1.18-3.67,2.18-8.49,1.15-11.16-2.13-17.07c-.22-.41,1.28-1.81,2.55,1,.87,1.89,1.53,4.76,1.4,9.84,0,.73.36,1,.45-1.56,0,0,.14-5.85-1.14-8.82-1.19-2.8-2.64-4.4-3.14-4.4s.73,1.37-1.64,2.38-4.31-.14-2.45-5.12c.27-.74-1.59,1-1.73,4.66,0,.46-2.74-.32-1.5-4.71,1-3.39,6-4.62,9.14-3.34s6.1,3.29,6.47,10.33c0,0-6,19.79-7.82,25.46l-.64-.2"/><path class="cls-2" d="M121.3,39c-2.06-.76-3.16-1.15-3.16-1.15,2.73-8.9,5.52-17.78,7.1-22.54,2.24-6.77,8-13.15,15-11.27,8.25,2.19,7.22,11.94,0,11.58-5.06-.26-4-4-4.15-5.17-.06-.36-3.07-.93-5.92,5.29s-5.46,13.84-5.82,15,2.3-5.26,4.61-10.55c2.54-5.85,4.73-7.68,5.76-8,0,0,.12.61.24,1,.25.85.31,1,.31,1a11.18,11.18,0,0,0-2.61,3c-1.6,2.53-3.28,6-3.28,6s3.76-5.36,4.79-6.52A5.55,5.55,0,0,1,136,15.17a4.44,4.44,0,0,0,1.58,1.16,2.72,2.72,0,0,0,1.4.37,34.88,34.88,0,0,0-4.86,5.85c-2.85,4.09-6.78,12-9.39,17.66,0,0-1.41-.59-3.46-1.35"/><path class="cls-2" d="M125.62,40.7C131,29,136.7,20.59,141.25,16.62a7.26,7.26,0,0,0,2.07-.62c1.22-.55,1.22-.69,1.22-.69a11.22,11.22,0,0,1,6.55,1,6.73,6.73,0,0,1,4,6.26,5.54,5.54,0,0,0-1.32-1c-.63-.27.82,1,.91,2.15a3.88,3.88,0,0,1-.86,2.7,7.91,7.91,0,0,0-1.18-2.55c-.36-.46.31,1,.36,2.19a2.35,2.35,0,0,1-1.45,2.34c-.64.36-2.78,1.05-5.55-.6,0,0,1.64-.46,1.55-1.46,0-.32-1.64,1.32-3.28.13s.55-3.33,0-3.33a9.34,9.34,0,0,0-6.1,2.05c-2.77,2.2-3.73,3.8-3.91,4.26s3.1-2.68,4.41-3.62c2.51-1.78,3.49-1,3.49-1a1.69,1.69,0,0,0,.79,2.27l.12.05s-2.24,0-5.9,3.4a60.54,60.54,0,0,0-9,11.42l-2.55-1.17"/><path class="cls-2" d="M129.1,42.35a.72.72,0,0,1-.2-.09c3.53-4.59,7.25-9.67,9.5-11.49,2.71-2.2,4.82-2.75,6-2.79a4.89,4.89,0,0,0,2.68,1.6,8.12,8.12,0,0,0,2.55.37s3.8,3.27,3,6.9c-.64,2.92-2.28,3.75-2.28,3.75a5.86,5.86,0,0,0,.07-2.43,8.1,8.1,0,0,0-.73-1.92,11,11,0,0,1-.14,3.52c-.57,2.08-1.68,2.66-3,2.29-.39-.11,1.09-1,1.32-4.07a5.79,5.79,0,0,0-3.23-5.62s2.91,3.24,2.18,6-1.67,3.63-2.91,4-2.27-.46-1.64-1.56c.54-.93.69-1.39.46-1.78s-1.37,2.74-2.46,1.64c-1.44-1.44.27-4.16-.18-5.35s-1.67-1.26-3.05-.73c-2,.78-8,7.79-8,7.79"/><path class="cls-2" d="M138.1,35.52c1.09,0,.48,1.28.48,1.28s-.09-.36-1.27-.18a14,14,0,0,0-3.37,1.46s2.41-2.56,4.16-2.56"/><path class="cls-2" d="M109.42,36.87c-1.09,1.22-1.91,2.59-.94,5.7,0,0,2.53-.08,9,2.2,6.73,2.38,8.86,3.78,8.86,3.78,1.94-1.47,2.67-3,2.39-4.82,0,0-2.15-1.72-9.55-4.3-7-2.44-9.76-2.56-9.76-2.56"/><path class="cls-2" d="M108.25,43.63c-1.14,1.1-1.58,2.71-.73,5.31,0,0,2.4-.39,8,1.69,5.94,2.21,8,3.85,8,3.85,1.91-1.28,2.21-2.41,2.06-4.94,0,0-1.75-1.39-8.62-3.78-6.41-2.23-8.67-2.13-8.67-2.13"/><path class="cls-2" d="M107.7,50.15a8.47,8.47,0,0,0-1.51,7s2-.48,7,1.42c5.35,2,6.9,3.4,6.9,3.4,1.69-1.28,2.62-4,2.49-6.52,0,0-1.66-1.45-7.39-3.64s-7.54-1.61-7.54-1.61"/><path class="cls-2" d="M106.42,58.2a5.77,5.77,0,0,0-1.33,6.22s2.25.74,6,2c4.46,1.51,6.31,2,6.31,2,1.69-1.28,2.24-3.14,2.06-5.42,0,0-.68-1.12-6.25-3.11-5.34-1.92-6.79-1.65-6.79-1.65"/><path class="cls-3" d="M142.65,72.1c.21.66.83,2.44-.19,6.1a11.89,11.89,0,0,1-8,8.93,9.13,9.13,0,0,1-1.61.51c1.67,1.56,4.11.66,7.28,1a5,5,0,0,1,4.34,3.57,9.66,9.66,0,0,0-4.28,0A9.1,9.1,0,0,0,137,93.43,5.74,5.74,0,0,1,142.86,98a5.31,5.31,0,0,1-.3,3.78,3.28,3.28,0,0,0-1.4-1.65,5.19,5.19,0,0,0-4.19-.24,7.09,7.09,0,0,0,1.46,3.23c1.46,1.77,3.22,2,3.94,4.27,1,3.1-1.75,5.18-1.75,5.18a4.71,4.71,0,0,0-1-2.13,3.15,3.15,0,0,0-2.36-.52s0,.29.42,2.59a5.47,5.47,0,0,1-2,5.18,6.12,6.12,0,0,0-2.18-2.47,4.9,4.9,0,0,1-1.91-2.1c-.1,2.83-2.79,6.7-2.79,6.7s-1.94-2.5-3.31-3.87l-2.73-2.74a26.38,26.38,0,0,0-.82,5.58,39,39,0,0,1-6.37-5.31,16.41,16.41,0,0,1-2.3-3.78c-.61,1-4.43,4.06-4.43,4.06a17.53,17.53,0,0,1-2.28-3.84C105.82,108.1,105,106,105,106a41.48,41.48,0,0,1-4.74,3.41s-2.85-2.38-2.73-5.3a8.35,8.35,0,0,1,.64-3.42,27.1,27.1,0,0,1-8.92-2.1c-4.94-2-10.92-2.84-10.71-4s4.4-2.09,7.89-1.41c4.64.92,7.64,1.38,7.64,1.38a23.61,23.61,0,0,0-12.67-5.22c-6.4,0-5.8,3.88-6.32,4-.26.09-2.31-1.49-3.35-4.8-1.12-3.53.33-7.72,2.18-9.24,3.91-3.2,11.83-2,11.83-2-1.57-.91-2.18-4,3.4-8.32,0,0,1.61-.14,8,1.23a143.06,143.06,0,0,1,15.06,4.07c5,1.6,8.4,2.71,8.4,2.71,1.72-.78,4.4-.1,8.71-.33,5.1-.27,8.16-1,10.35-2.32a11.89,11.89,0,0,0,2.91-2.19"/><path class="cls-2" d="M141.8,74.29a5.55,5.55,0,0,1-1.64,1.29c-1.94,1.15-4,2-10.59,2.13-5.92.08-7.55.18-8.64,1.1a9.27,9.27,0,0,0-1.64,1.73s-1.09-1.37.55-3a60.27,60.27,0,0,0-8.6-3.25c-6.06-1.92-7.41-2-13.79-3.4-5.82-1.31-7.28-1.13-7.28-1.13-1.67,1.3-2.67,2-3.58,4.06s0,2.86,1.22,3.27c1.07.36,2.34-1.23,5.64-.1a64,64,0,0,1,7,3.07s-.33.28-2.85,0L97.14,80a6.66,6.66,0,0,1-2.72,2.27c-1.55.54-3.44.88-5-.47a2.86,2.86,0,0,1-.76-2.92A7.58,7.58,0,0,1,87,78.51c-3.21-.07-8.28-.8-11.66,1.51-1.88,1.28-3.15,4.49-2.29,7.73a8.72,8.72,0,0,0,1.55,3.39s1.57-3.29,6.64-3c3.28.17,6.41,1.14,11.41,4.21a16,16,0,0,1,4.25,3.47,69.3,69.3,0,0,1-9.65-1.18c-4.53-1-6.92,0-6.92,0a89,89,0,0,1,9.71,3c3.85,1.43,9.77,2.53,14.86,1.53.12,0,0,.09,0,.09s.19,1.37-5.28,1.46c-1.88,4.54.85,6.86.85,6.86a23.23,23.23,0,0,0,7.1-6.1,7.84,7.84,0,0,1-1.33,3.11c1.1,3.47,2.7,7,2.94,6.83a11.8,11.8,0,0,0,3.43-3.5,13.56,13.56,0,0,0,1.7-4.51c.54.64,1.3.41,1,1.16-.49,1.34-1.22,3.48-1,4.27,1.17,3.83,6.64,7.65,6.64,7.65.18-4.85,1.27-5,1.27-5A78.8,78.8,0,0,1,128.7,118c2.78-3.84,0-12.49,0-12.49,2.54,3,2.17,4.62,4.18,7.1a17.32,17.32,0,0,0,2.85,2.89,5.5,5.5,0,0,0,.43-3.72,8,8,0,0,1-.46-2.83c3.73-1.13,5.43,1.25,5.43,1.25,1.46-3.29-3.18-4.66-4.19-6.22a12.44,12.44,0,0,1-1.42-3.81c-.91.28-1.18,1-4.55.64s-3.55-2.74-3.55-2.74a5.48,5.48,0,0,0,2.82,1.46c1.82.37,3.55-.36,5.73-1.19s5.37.19,5.37.19,0-2.26-3.18-3.48a7.71,7.71,0,0,0-4.43-.33c2.43-4,8.07-3.88,8.07-3.88-1.82-1.28-3.19-.45-6.73-.73-2.93-.22-3.94-1.84-4-2.38-3.06-.06-6.69-1-7.19-1.55a23.65,23.65,0,0,0,4.37.46c2.82.09,6.73-.09,9.92-3.48a12.35,12.35,0,0,0,3.58-8.81"/><path class="cls-3" d="M90.35,58.64c-.86-.13-3.28,1.92-.77,4l-.5,2.88s-1.87.55-1.91,1.92a2.14,2.14,0,0,0,.94,1.94s1.29.32,1.61.36a97.69,97.69,0,0,1,14.92,3.13,138.27,138.27,0,0,1,16.29,5.43h.55a26.66,26.66,0,0,1,5.63-.82,37.19,37.19,0,0,0,5.06-.23l-.5-1.37c.91-.69,2-1.69.72-3.34a104.76,104.76,0,0,0-18.06-8.09,122.25,122.25,0,0,0-24-5.72"/><path class="cls-2" d="M91.17,62.87A130.53,130.53,0,0,1,108.6,67a181,181,0,0,1,20.52,7.59l-1.23,2.52A130.3,130.3,0,0,0,108,70c-11.52-3.13-13.93-3.45-16.52-3.72l-.32-3.41"/><path class="cls-3" d="M81.34,81.64s-1.69-.58-1.11-1.53,2.57-.75,4-.34a8.74,8.74,0,0,1,2.64,1.41s-3.69-1.64-5-.86a1.06,1.06,0,0,0-.55,1.32"/><path class="cls-3" d="M120.57,84.87s-1.19-3,4.18-3.66,11.67-1.67,13.67-3.14a4.18,4.18,0,0,1-2.55,2.11c-2.09.82-8.55,1.92-11,2.47s-2.64,1.28-2.64,1.28l1.82.55a25.23,25.23,0,0,1-3.45.36"/><path class="cls-3" d="M114.56,65a11.63,11.63,0,0,1-1.88-3.23s-.37.55-3.28,1.34a8.44,8.44,0,0,1-7.64-1.4s-1.28-1.28-1.66-1.8a5.4,5.4,0,0,1-.75-1.4,7.12,7.12,0,0,1-4,2.26c-3.65.5-7.6-2.6-9.48-8.6a3.81,3.81,0,0,1-4.71-.27l-.22-.21a10.26,10.26,0,0,0-2.71-1.54v0a10.59,10.59,0,0,0,2.1-2.82h0a3,3,0,0,1,.53-.79,3.65,3.65,0,0,1,1.72-1.1,3.8,3.8,0,0,1,.79-3.61l.21-.21a10.74,10.74,0,0,0,1.47-2.73h0A10.17,10.17,0,0,0,87.9,41h0a3.7,3.7,0,0,1,.78.53A3.87,3.87,0,0,1,90,43.87a3.73,3.73,0,0,1,3.35.86,2.13,2.13,0,0,1,.22.21,9.92,9.92,0,0,0,2.71,1.53v.06a10.13,10.13,0,0,0-2.1,2.81h0a4.74,4.74,0,0,1-.53.79,3.86,3.86,0,0,1-2.5,1.27c.46,1.84,1.42,3.13,2.66,3.24,1.86.18,3.63-2.32,4.08-5.66h0a3.2,3.2,0,0,1,0-3.51,3.17,3.17,0,0,1,4.57,4.4h0c-.45,3.56,1.38,6.75,4.11,7.09a4.73,4.73,0,0,0,4.41-2.28,4.41,4.41,0,0,1-3.52-2.81,1.7,1.7,0,0,1-.1-.32,11.85,11.85,0,0,0-1.9-2.89v-.07a11.55,11.55,0,0,0,3.59-1.5h0a3.88,3.88,0,0,1,.94-.45,4.4,4.4,0,0,1,2.64,0h0a4,4,0,0,1,2.73-3,1.68,1.68,0,0,1,.32-.09,11.73,11.73,0,0,0,3-1.75h0a12.4,12.4,0,0,0,1.58,3.07l.22.26a4,4,0,0,1,.59,4h0a4.4,4.4,0,0,1,2.16,1.52,4.53,4.53,0,0,1,.53.9h0a11.59,11.59,0,0,0,2.12,3.32v.06a11.34,11.34,0,0,0-3.19,1.33l-.26.21a4.46,4.46,0,0,1-4.45.31,4.76,4.76,0,0,0,2.37,4.38c2.44,1.26,5.75-.33,7.38-3.53a2.83,2.83,0,0,1-.16-1,3.16,3.16,0,0,1,6.32,0,3.18,3.18,0,0,1-1.94,2.91h0c-1.5,3-1.44,6.07.19,7,1.09.61,2.6.09,4-1.16a3.91,3.91,0,0,1-1.37-3.47h0a10.73,10.73,0,0,0-.16-3.53h.07a10.08,10.08,0,0,0,3.1.27,1.33,1.33,0,0,1,.3-.06,3.79,3.79,0,0,1,3.25,1.2,3.78,3.78,0,0,1,3.32-1.25h0a10.06,10.06,0,0,0,3.5-.16v.07a10.19,10.19,0,0,0-.27,3.11.54.54,0,0,0,.06.3,3.82,3.82,0,0,1-1.38,3.43,3.74,3.74,0,0,1,.81,1.88,4.18,4.18,0,0,1,0,1h0a9.93,9.93,0,0,0,.15,3.52h-.06a10.13,10.13,0,0,0-3.1-.27H144A3.78,3.78,0,0,1,140,69c-4.93,3.89-9.92,4.21-12.65,1.73a7,7,0,0,1-2.06-4.16,5.56,5.56,0,0,1-1.41.73,15.62,15.62,0,0,1-2,.46c-2.91.15-5.74-.81-7.28-2.71"/><path class="cls-2" d="M113.25,59.57a8.43,8.43,0,0,0,6.49,6.85,8,8,0,0,0,6.68-1.94v.06a6.93,6.93,0,0,0,2,5.44c2.46,2.1,7.05,1.34,11.22-2.22l.17-.14.07-.07a.78.78,0,0,1,.53-.2.85.85,0,0,1,.82.75A2.22,2.22,0,0,0,143.71,70H144a6.15,6.15,0,0,1,1.91.11h0a6.09,6.09,0,0,1,0-2.17h0a2.91,2.91,0,0,0,0-.59,2.25,2.25,0,0,0-.72-1.45l-.14-.14a.93.93,0,0,1-.28-.7,1,1,0,0,1,.52-.87,2.31,2.31,0,0,0,1.14-2.35v-.18a5.73,5.73,0,0,1,.17-1.89h0a6.34,6.34,0,0,1-2.17.07h0a1.82,1.82,0,0,0-.57,0A2.34,2.34,0,0,0,142,61.29a.92.92,0,0,1-1.28.15.54.54,0,0,1-.15-.15c-.07-.09-.12-.18-.18-.27a2.28,2.28,0,0,0-2.18-1H138a6.44,6.44,0,0,1-1.91-.14h0a6.53,6.53,0,0,1,.06,2.16h0a2.91,2.91,0,0,0,0,.59,2.29,2.29,0,0,0,1,1.62.92.92,0,0,1,.45.74.84.84,0,0,1-.28.63c-1.88,1.89-4.09,2.67-5.69,1.78-2.2-1.22-2.35-5.2-.32-8.88v-.1a1.92,1.92,0,0,0,1.42-1.85,2,2,0,1,0-4.05,0,1.74,1.74,0,0,0,.27.94c-.09.2-.18.39-.29.6-2,3.88-6,5.79-9,4.26-2.09-1.08-3.1-3.58-2.83-6.32v-.14a.77.77,0,0,1,.76-.67.75.75,0,0,1,.43.13,3.08,3.08,0,0,0,3.57.09l.19-.14a7.79,7.79,0,0,1,2.25-.92h0a7.85,7.85,0,0,1-1.45-2.33h0a3.63,3.63,0,0,0-.36-.64,3.19,3.19,0,0,0-2-1.23h.08a.76.76,0,0,1-.78-.74h0a.65.65,0,0,1,.12-.4h0a2.79,2.79,0,0,0-.24-3.18l-.16-.18a7.83,7.83,0,0,1-1.06-2.15,8.17,8.17,0,0,1-2.11,1.2l-.24.06a2.77,2.77,0,0,0-2,2.52h0a.82.82,0,0,1-.13.4.76.76,0,0,1-1,.19h.06a3.1,3.1,0,0,0-2.37-.14,2.88,2.88,0,0,0-.66.32h0a8,8,0,0,1-2.51,1.1h0a8.44,8.44,0,0,1,1.34,2l.08.23a3.09,3.09,0,0,0,3,2,.75.75,0,0,1,.43.13.78.78,0,0,1,.25,1l-.06.12c-1.31,2.42-3.55,3.91-5.89,3.62-3.31-.42-5.55-4.27-5-8.61a3.65,3.65,0,0,1,.1-.65,1.76,1.76,0,0,0,.75-.63,2,2,0,1,0-3.35-2.3A1.92,1.92,0,0,0,99,48.43v.11c-.4,4.19-2.75,7.39-5.26,7.15-1.81-.17-3.2-2.07-3.69-4.7a.71.71,0,0,1,.12-.67.87.87,0,0,1,.79-.36,2.35,2.35,0,0,0,1.69-.81,2.76,2.76,0,0,0,.32-.49h0a6.43,6.43,0,0,1,1.27-1.75h0a5.83,5.83,0,0,1-1.66-1l-.14,0a2.25,2.25,0,0,0-2.36-.41l-.3.12a.91.91,0,0,1-1.19-.81,2.34,2.34,0,0,0-.73-2.22,3.08,3.08,0,0,0-.48-.32h0a6.2,6.2,0,0,1-1.73-1.36h0a6.22,6.22,0,0,1-.92,1.65l-.13.14a2.31,2.31,0,0,0-.35,2.53,1,1,0,0,1-.06,1,1,1,0,0,1-.62.42h-.19a2.16,2.16,0,0,0-1.41.78,2,2,0,0,0-.32.5h0a6.52,6.52,0,0,1-1.25,1.77h0a6.44,6.44,0,0,1,1.64,1,.8.8,0,0,0,.13.13,2.21,2.21,0,0,0,3.13,0l.08-.08a.83.83,0,0,1,1.06,0,.86.86,0,0,1,.33.46v.1l.06.21c1.44,5.3,4.81,8.54,8,8.19a6.89,6.89,0,0,0,4.69-3.37h0a8,8,0,0,0,4.42,5.38c3,1.35,6.63.43,9.24-2"/><path class="cls-3" d="M143.13,64.87A2.12,2.12,0,1,1,141,62.73a2.13,2.13,0,0,1,2.12,2.14h0"/><path class="cls-2" d="M142.23,64.87A1.23,1.23,0,1,1,141,63.64h0a1.23,1.23,0,0,1,1.22,1.23"/><path class="cls-3" d="M117.71,51.49a2.12,2.12,0,1,1-2.12-2.13,2.12,2.12,0,0,1,2.12,2.13"/><path class="cls-2" d="M116.81,51.49a1.23,1.23,0,1,1-1.23-1.23h0a1.23,1.23,0,0,1,1.22,1.23"/><path class="cls-3" d="M89.32,48a2.13,2.13,0,1,1-2.12-2.15A2.14,2.14,0,0,1,89.32,48h0"/><path class="cls-2" d="M88.42,48a1.23,1.23,0,1,1-1.23-1.23h0A1.22,1.22,0,0,1,88.42,48h0"/><path class="cls-3" d="M88.27,65.21c.43.34,1.36,1.28,2.08,1.89s1.42.15,1.94-.12c.71-.37,1.16-.63,1.55-.85.84-.49.45-1.22-.26-1.9s-1.23-1.15-1.74-1.7a1.64,1.64,0,0,0-2-.24,12,12,0,0,0-2.07,1.09c-.49.41-.32,1.22.45,1.83"/><path class="cls-2" d="M92.55,64.66A1.65,1.65,0,1,1,90.9,63a1.65,1.65,0,0,1,1.65,1.65h0"/><path class="cls-3" d="M97.31,67c.43.34,1.36,1.28,2.07,1.89s1.42.15,2-.12,1.16-.63,1.55-.86c.84-.48.46-1.22-.26-1.89s-1.25-1.13-1.79-1.7a1.58,1.58,0,0,0-1.95-.25c-.7.44-1.23.61-2.07,1.1-.55.32-.32,1.22.45,1.83"/><path class="cls-2" d="M101.59,66.43a1.65,1.65,0,1,1-1.65-1.66,1.65,1.65,0,0,1,1.65,1.66h0"/><path class="cls-3" d="M108.05,69.66c.43.34,1.36,1.28,2.07,1.89s1.42.15,2-.12,1.16-.63,1.55-.85c.84-.49.45-1.22-.26-1.89s-1.23-1.16-1.75-1.71a1.56,1.56,0,0,0-1.94-.25c-.7.45-1.23.62-2.07,1.1-.55.32-.32,1.22.45,1.83"/><path class="cls-2" d="M112.33,69.11a1.66,1.66,0,1,1-1.66-1.66h0a1.65,1.65,0,0,1,1.65,1.65h0"/><path class="cls-3" d="M118.12,73.14c.43.33,1.36,1.28,2.07,1.89s1.42.14,2-.13,1.16-.62,1.55-.85c.84-.49.45-1.22-.26-1.89s-1.23-1.16-1.75-1.71a1.58,1.58,0,0,0-1.94-.24c-.7.44-1.23.61-2.07,1.1-.55.32-.32,1.22.45,1.83"/><path class="cls-2" d="M122.42,72.59a1.65,1.65,0,1,1-1.65-1.66,1.65,1.65,0,0,1,1.65,1.66"/><path class="cls-3" d="M133.33,77.46c.33-.15-.33-.77-.74-1.15-.72-.68-1.23-1.16-1.75-1.71a1.55,1.55,0,0,0-1.94-.24c-.7.44-1.23.61-2.07,1.09-.55.32-.32,1.22.45,1.83.14.11.34.29.56.49,0,0,5.09-.12,5.49-.31"/><path class="cls-2" d="M131.54,76.43A1.48,1.48,0,0,0,130,75.07h-.05a1.61,1.61,0,0,0-1.64,1.53h1.58a6.08,6.08,0,0,0,1.69-.18"/><path class="cls-2" d="M124.16,76.58a158,158,0,0,0-15.06-5.27c-11.83-3.44-18.23-4.33-19-4.39-1.28-.09-1.79,1.25-.33,1.52a121.43,121.43,0,0,1,19,4.3c4.79,1.4,8.91,2.83,12.19,4.08A7.65,7.65,0,0,1,122,76.6a21.45,21.45,0,0,1,2.16,0"/><path class="cls-2" d="M90.56,61.87a121.43,121.43,0,0,1,19,4.3c12.2,3.56,20.1,7.35,20.75,7.77,1,.64,1.82-.73.27-1.46a141.45,141.45,0,0,0-20.65-7.75c-11.83-3.47-18.23-4.33-19-4.39-1.28-.09-1.79,1.25-.34,1.53"/><path class="cls-2" d="M126.28,69.38a7.92,7.92,0,0,1-1-2.83,5.56,5.56,0,0,1-1.41.73,11.68,11.68,0,0,1-1.82.42h0c1.6.61,3,1.18,4.22,1.69h0"/><path class="cls-2" d="M100.1,59.94a14.86,14.86,0,0,0,1.25,1.38h0c-1.71-.42-3.21-.75-4.48-1h0a8,8,0,0,0,2.43-1.78,5.4,5.4,0,0,0,.75,1.4"/><path class="cls-2" d="M114.62,65.06h-.06a11.63,11.63,0,0,1-1.88-3.23s-.37.55-3.26,1.33h0l-.62.15,1.59.46c1.48.43,2.9.87,4.25,1.31"/><path class="cls-3" d="M114.42,103.69c.86,1.24,1.14,1.44,2.35,3.41,0,0,1-1.21,2.17-2.94,2.4-3.58.32-7.4.2-8.41V96c-.11,1,1.25,6.35-2.39,8.91,0,0,.62-.41-2.26-4.44-.2-.28-1.58,1.07-.07,3.26"/><path class="cls-3" d="M122,235c.79,1.06,2.16,1.73,3.19,3.47a31.13,31.13,0,0,0,1.9-2.65c2-3.11,1.1-4.68,1-5.58,0,0-.33-1.27-.37-1-.11.92.55,4.75-2.64,7.13,0,0-3.27-1.55-5.09-7.59-.09-.29-.49,2.87,2,6.22"/><path class="cls-3" d="M123.66,112.55a20.37,20.37,0,0,1-3.58-6.74H120a14.06,14.06,0,0,0,1.54,5.37,21.11,21.11,0,0,0,3.19,3.93,6.69,6.69,0,0,0-1.09-2.56"/><path class="cls-3" d="M80.42,91.79s4.28-2.38,11.32.67a6.42,6.42,0,0,1,3.34,2.71l-4.83-.45s-.32-1-2.18-1.92c-2.52-1.19-5.14-.64-7.65-1"/><path class="cls-2" d="M89.74,92.58a6.13,6.13,0,0,1,1.52,1.65l3,.43a12.63,12.63,0,0,0-4.55-2.08"/><path class="cls-3" d="M86.17,216.46s4.88-3,12.25.3a7.21,7.21,0,0,1,3.5,3.22l-5.33-.54s-.29-1.82-3-2.56-5.28-.12-7.37-.42"/><path class="cls-2" d="M95.66,216.87a8.85,8.85,0,0,1,2.14,2,12.82,12.82,0,0,0,1.64.46,9.86,9.86,0,0,0,1.54.23,10.62,10.62,0,0,0-5.32-2.7"/><path class="cls-2" d="M92.23,78.44a4.43,4.43,0,0,1,3.19,1.28,3.38,3.38,0,0,1-4.11,1.56,1.3,1.3,0,0,0,1.35-1.1c.12-.73.12-1.31-.4-1.74"/><path class="cls-2" d="M28.68,313.23c-.2-4.15-.41-9.14-.39-13.52h-.13c-1,3.94-2.39,8.28-3.77,12.35L19.69,326H15.2L11,312.24c-1.26-4.12-2.4-8.49-3.24-12.53h-.1c-.14,4.2-.33,9.34-.58,13.72l-.71,12.92H.88L3,294.2h7.68l4.17,12.91c1.15,3.8,2.17,7.61,2.94,11.2h.14c.86-3.52,2-7.45,3.2-11.23l4.43-12.88h7.58L35,326.35H29.3l-.62-13.12"/><path class="cls-2" d="M54.31,318.18a5,5,0,0,1-.16,1.28,4.76,4.76,0,0,1-4.57,3.21,3.09,3.09,0,0,1-3.34-2.83,3,3,0,0,1,0-.52c0-3.53,3.94-4.4,8.06-4.35v3.21M60,312.39c0-5.09-2.12-9.79-9.53-9.79a16.66,16.66,0,0,0-8.38,2.06l1.16,3.81a12.36,12.36,0,0,1,6.17-1.73c4.09,0,4.7,2.52,4.7,4.05v.38c-8.52,0-13.71,2.93-13.71,8.79a6.86,6.86,0,0,0,6.81,6.92,4.34,4.34,0,0,0,.51,0,8.42,8.42,0,0,0,6.81-3.11h.15l.4,2.59h5.27a32.8,32.8,0,0,1-.36-5.6Z"/><rect class="cls-2" x="67.37" y="292.48" width="5.85" height="33.87"/><path class="cls-2" d="M80.7,310c0-2.68-.09-4.89-.19-6.9h5l.27,3.41h.14A7.91,7.91,0,0,1,93,302.6a6.64,6.64,0,0,1,6.39,4.27h.09a9.36,9.36,0,0,1,2.83-2.91,7.92,7.92,0,0,1,4.7-1.37c3.82,0,7.71,2.63,7.71,10.08v13.67h-5.7V313.5c0-3.87-1.33-6.14-4.12-6.14a4.39,4.39,0,0,0-4.06,3.09,6.18,6.18,0,0,0-.3,2v13.94h-5.7V312.92c0-3.27-1.3-5.56-4-5.56a4.64,4.64,0,0,0-4.2,3.32,5.57,5.57,0,0,0-.29,1.94v13.73h-5.7V310"/><path class="cls-2" d="M131.83,322.6c-3.48,0-5.7-3.37-5.7-7.84,0-3.87,1.68-7.9,5.78-7.9s5.64,4.17,5.64,7.82c0,4.67-2.33,7.92-5.68,7.92h0m-4.52-22.52a2.79,2.79,0,0,0,2.75-2.81v-.06a2.75,2.75,0,0,0-2.61-2.87h-.12a2.87,2.87,0,0,0-.06,5.74h0Zm9.21,0a2.78,2.78,0,0,0,2.79-2.77v-.1a2.76,2.76,0,0,0-2.63-2.87h-.14a2.87,2.87,0,0,0-.06,5.74h0Zm-4.78,26.79c5.87,0,11.82-3.83,11.82-12.36,0-7-4.59-11.91-11.47-11.91s-12,4.69-12,12.31c0,7.44,5,12,11.56,12Z"/><path class="cls-2" d="M158.42,320.94a12.68,12.68,0,0,0,5.89,1.7c2.57,0,3.72-1.08,3.72-2.61s-1-2.36-3.8-3.38c-4.52-1.56-6.4-4-6.38-6.78,0-4.08,3.37-7.27,8.77-7.27a13.14,13.14,0,0,1,6.12,1.39l-1.15,4.12a10.4,10.4,0,0,0-4.89-1.34c-2.08,0-3.24,1-3.24,2.46s1.12,2.19,4,3.25c4.2,1.5,6.15,3.66,6.17,7.08,0,4.23-3.29,7.29-9.39,7.29a15,15,0,0,1-7-1.63l1.18-4.28"/><path class="cls-2" d="M186.42,297.16v6H192v4.37h-5.56v10.25c0,2.84.76,4.28,3,4.28a7.58,7.58,0,0,0,2.27-.26l.12,4.48a13.36,13.36,0,0,1-4.25.6,6.78,6.78,0,0,1-5-1.92c-1.25-1.33-1.83-3.47-1.83-6.51V307.5h-3.29v-4.37h3.29V298.8l5.73-1.64"/><path class="cls-2" d="M209.76,318.18a4.63,4.63,0,0,1-.16,1.28,4.76,4.76,0,0,1-4.57,3.21,3.09,3.09,0,0,1-3.34-2.83,3,3,0,0,1,0-.52c0-3.53,3.94-4.4,8.06-4.35v3.21m5.69-5.79c0-5.09-2.12-9.79-9.53-9.79a16.62,16.62,0,0,0-8.37,2.06l1.15,3.81a12.37,12.37,0,0,1,6.22-1.73c4.09,0,4.69,2.52,4.69,4.05v.38c-8.51,0-13.71,2.93-13.71,8.79a6.87,6.87,0,0,0,6.81,6.92h.48a8.46,8.46,0,0,0,6.81-3.11h.14l.4,2.59h5.27a32.8,32.8,0,0,1-.36-5.6Z"/><path class="cls-2" d="M237.27,316.27a7.61,7.61,0,0,1-.18,1.72,5.19,5.19,0,0,1-5,4.18c-3.68,0-5.78-3.12-5.78-7.39s2.09-7.64,5.85-7.64a5.16,5.16,0,0,1,5,4.13,8.7,8.7,0,0,1,.13,1.53v3.47m0-23.79v13.15h-.1c-1-1.72-3.31-3-6.48-3-5.55,0-10.39,4.62-10.36,12.4,0,7.14,4.38,11.87,9.89,11.87a8.25,8.25,0,0,0,7.51-4.2h.1l.27,3.68h5.2c-.11-1.58-.2-4.14-.2-6.52V292.48Z"/></svg>