<svg width="100" height="110" viewBox="0 0 100 110" fill="none" xmlns="http://www.w3.org/2000/svg">
<path fill-rule="evenodd" clip-rule="evenodd" d="M3.66187 48.867L0.0649414 44.7501L8.63952 13.3765L45.579 0L86.3782 18.0624L99.3789 36.8337L93.4185 41.4915L72.2262 22.3751L3.66187 48.867Z" fill="#AE4242"/>
<path fill-rule="evenodd" clip-rule="evenodd" d="M8.34082 45.1115L14.3406 22.037L47.2261 9.25891L78.2562 22.037L89.5507 82.4913C89.5507 82.4913 78.4767 101.869 63.4342 107.121C48.3918 112.373 29.8699 103.328 29.8699 103.328L8.34082 45.1115Z" fill="#CECECE"/>
<path fill-rule="evenodd" clip-rule="evenodd" d="M45.5837 0V6.12538L81.6247 20.6128L93.419 41.6656L99.3788 36.9882L86.3792 18.1381L45.5837 0Z" fill="#8E3030"/>
<path fill-rule="evenodd" clip-rule="evenodd" d="M11.8699 38.0646L33.1696 45.5727V48.8668L8.8584 45.5727L11.8699 38.0646Z" fill="#E4E4E4"/>
<path fill-rule="evenodd" clip-rule="evenodd" d="M49.2046 9.25891L75.5731 100.82L89.5509 82.7112L77.6164 22.0754L49.2046 9.25891Z" fill="#BCBCBC"/>
</svg>
