<svg width="86" height="124" viewBox="0 0 86 124" fill="none" xmlns="http://www.w3.org/2000/svg">
<path fill-rule="evenodd" clip-rule="evenodd" d="M35.2682 11.8708C31.8927 12.7753 29.8895 16.245 30.794 19.6205L32.1688 24.7515C32.9892 27.8133 35.92 29.746 38.9768 29.4039C38.9849 29.4286 38.993 29.4533 39.0012 29.4781L46.8789 27.3673C47.8685 25.7017 43.9797 17.245 42.2487 14.5607C41.994 14.1658 41.7778 13.8961 41.5914 13.7281C40.0487 12.0322 37.6353 11.2366 35.2682 11.8708Z" fill="#191847"/>
<path fill-rule="evenodd" clip-rule="evenodd" d="M38.8919 24.9215C40.9345 25.5086 42.7999 25.5569 43.5553 25.1307C45.4495 24.0621 43.6458 16.5825 41.2868 14.0753C38.9279 11.5681 30.4935 12.4598 31.6406 18.3723C32.0387 20.4243 33.3675 21.9948 35.0122 23.1261L35.5659 34.1703L42.0854 32.4234L38.8919 24.9215Z" fill="#B28B67"/>
<path fill-rule="evenodd" clip-rule="evenodd" d="M30.787 18.6373C30.9262 18.3997 31.0609 18.1699 31.1993 17.9594L31.1341 17.7509C31.1341 17.7509 32.0597 13.021 35.2054 12.1781C38.3482 11.336 39.733 12.5282 40.9101 13.5417L40.9132 13.5444C40.8769 15.1765 39.7091 16.1459 38.3884 17.2421C37.8199 17.714 37.223 18.2094 36.6759 18.7914C36.3631 18.6518 36.002 18.6147 35.6451 18.7103C34.82 18.9314 34.33 19.7784 34.5507 20.6021C34.7714 21.4258 35.6192 21.9143 36.4444 21.6932C36.4671 21.6871 36.4896 21.6805 36.5118 21.6735C37.6753 24.814 38.5405 28.5245 37.8793 29.6375L30.0016 31.7484C28.7245 27.8867 29.4411 26.4955 30.1733 25.0739C30.8623 23.7362 31.5652 22.3717 30.6341 18.8969C30.6859 18.8098 30.7367 18.7231 30.787 18.6374L30.787 18.6373Z" fill="#191847"/>
<path fill-rule="evenodd" clip-rule="evenodd" d="M28.3945 84.2062C28.3945 84.2062 38.5142 87.0318 45.8564 87.0318C53.1987 87.0318 59.496 82.6805 59.496 82.6805C59.496 82.6805 49.593 79.7803 43.1849 79.7803C36.7767 79.7803 28.3945 84.2062 28.3945 84.2062Z" fill="#AE4242"/>
<path fill-rule="evenodd" clip-rule="evenodd" d="M51.6967 89.7469C51.6317 89.6493 51.5767 89.5431 51.5331 89.428C50.6314 87.0474 36.1871 61.3647 34.748 56.6692H51.0103C52.1044 60.2392 57.0288 82.643 57.7219 87.1128C59.9085 94.1636 64.4105 116.998 64.9853 118.58C65.5899 120.244 62.188 121.978 61.2815 119.932C59.839 116.677 56.4021 107.669 54.8718 102.17C53.4372 97.0134 52.269 92.3747 51.6967 89.7469Z" fill="#997659"/>
<path fill-rule="evenodd" clip-rule="evenodd" d="M38.391 92.8825C31.7873 94.5487 7.63238 97.5608 5.97476 98.0332C4.26959 98.5192 2.77448 95.0106 4.88216 94.2506C8.23585 93.0412 17.4768 90.247 23.0796 89.1067C27.5861 88.1896 31.6984 87.4412 34.4593 87.0029C34.2254 79.2611 33.1562 60.6819 33.857 56.6692H48.2461C47.574 60.5171 41.8932 88.594 40.8373 91.4044C40.5022 92.4078 39.5024 92.8512 38.391 92.8825Z" fill="#B28B67"/>
<path fill-rule="evenodd" clip-rule="evenodd" d="M5.25733 95.5757C5.21803 94.4046 4.65537 93.154 3.48338 93.1521C3.33814 93.1518 3.20635 93.1599 3.09689 93.1792C2.34775 93.311 0.954529 93.8132 0.954529 93.8132C1.10777 94.6807 3.70889 109.407 3.70889 109.407C3.70889 109.407 5.82922 109.66 5.75841 108.322C5.6876 106.985 5.66394 106.096 5.66394 106.096L7.44057 98.9969C7.57743 98.45 7.2352 97.898 6.68435 97.777L6.19365 97.6693C6.19365 97.6693 5.41288 96.5567 5.279 95.7988C5.26696 95.7306 5.26002 95.6557 5.25733 95.5757Z" fill="#E4E4E4"/>
<path fill-rule="evenodd" clip-rule="evenodd" d="M62.5083 119.84C61.3507 119.671 60.0243 120.01 59.8182 121.162C59.7924 121.306 59.7773 121.438 59.7773 121.549C59.7773 122.309 60.0308 123.765 60.0308 123.765C60.9133 123.765 75.8925 123.765 75.8925 123.765C75.8925 123.765 76.5108 121.725 75.1787 121.562C73.8466 121.4 72.9655 121.268 72.9655 121.268L66.2676 118.288C65.7533 118.059 65.1515 118.299 64.9367 118.82L64.7447 119.284C64.7447 119.284 63.5115 119.859 62.7405 119.859C62.6688 119.859 62.5908 119.852 62.5083 119.84Z" fill="#E4E4E4"/>
<path fill-rule="evenodd" clip-rule="evenodd" d="M33.9033 56.6693C33.9033 56.6693 43.4145 53.9528 51.9018 56.6693C53.8704 65.6353 58.6538 69.1939 59.495 82.9404C49.9332 87.6831 38.1217 79.5579 28.2788 84.183C25.4665 77.7137 29.4037 62.1337 33.9033 56.6693Z" fill="#878787"/>
<path fill-rule="evenodd" clip-rule="evenodd" d="M57.5981 31.2297L48.9119 38.1806L53.1325 41.3582L58.9918 33.7421C62.4929 32.081 64.0451 31.0437 63.6483 30.6303C63.3137 30.2817 62.8889 30.3708 62.4976 30.4528C62.1928 30.5167 61.9084 30.5763 61.7027 30.4215C61.2331 30.0679 61.7258 28.4553 62.2589 26.9448C62.792 25.4343 61.984 25.7001 61.5448 25.9813C60.1781 27.3033 58.8626 29.0528 57.5981 31.2297ZM68.5638 36.9002L64.7496 39.9604L65.7359 44.1482C65.7359 44.1482 68.1233 41.6955 70.3607 40.6257C73.2135 39.2617 74.3148 38.41 75.452 36.2869C76.0604 35.1509 76.3725 33.0279 75.5107 32.5063C75.1802 32.3063 74.2174 33.0864 73.2351 33.8823C72.4865 34.4889 71.7265 35.1048 71.2263 35.3029C70.553 35.5697 70.4754 34.6513 70.4134 33.9174C70.3689 33.3907 70.3324 32.9591 70.0896 33.1286C68.8573 33.3677 68.5638 36.9002 68.5638 36.9002Z" fill="#997659"/>
<path fill-rule="evenodd" clip-rule="evenodd" d="M44.0245 37.835C47.3854 37.2058 51.7502 35.7042 56.0058 31.8236L58.6259 35.6804C55.8985 39.537 51.7262 43.0462 47.6431 43.6487C44.4255 44.1235 42.1074 40.5459 44.0245 37.835Z" fill="#8D2424"/>
<path fill-rule="evenodd" clip-rule="evenodd" d="M41.6073 27.2958L42.3719 27.161C43.4924 31.5067 45.7999 36.0188 48.1223 40.56C48.6647 41.6205 49.2078 42.6826 49.7368 43.7445C55.5448 44.0252 67.169 37.4335 67.169 37.4335C67.169 37.4335 71.4396 43.3468 71.6889 46.1417C65.1344 51.1784 59.2438 53.9474 54.1665 54.9569C54.8608 57.9474 54.9992 60.8849 54.2254 63.7279C53.1887 67.5371 46.1298 67.8557 40.0015 68.1324C36.727 68.2802 33.7182 68.416 32.0355 69.0659C28.9619 63.0704 29.8819 58.792 30.7313 54.8425C31.2431 52.4621 31.7294 50.2012 31.3 47.7558C30.0499 40.6344 33.8446 28.6646 34.6873 28.516L34.9292 28.4733C34.9292 28.4733 34.9292 28.4733 34.9292 28.4733L41.6073 27.2958C41.6073 27.2958 41.6073 27.2958 41.6073 27.2958Z" fill="#AE4242"/>
</svg>
